<?xml version="1.0" encoding="UTF-8"?>
<svg version="1.1" xmlns="http://www.w3.org/2000/svg" width="888" height="281">
<path d="M0 0 C7.88494895 6.44865713 12.27333237 13.70867852 13.48046875 23.92578125 C13.87355123 34.61508859 11.02011301 43.46594572 4.1640625 51.7109375 C-3.58669248 59.25618004 -12.46889765 62.15494496 -23.02954102 62.23608398 C-29.25090886 62.09425448 -34.0947129 60.45596258 -39.72192383 57.93701172 C-44.94162747 55.60333285 -49.23178239 54.78733282 -54.8984375 54.71875 C-56.53232422 54.61046875 -56.53232422 54.61046875 -58.19921875 54.5 C-69.34282999 54.0128476 -78.47064155 57.00749213 -87.1640625 64.06640625 C-91.66568775 68.35511679 -94.75598561 73.42587191 -97.8359375 78.78125 C-103.02108797 87.53958707 -109.86099625 93.55717969 -119.68359375 96.57421875 C-128.40427973 98.47002005 -136.71092298 97.53269672 -144.61328125 93.24609375 C-146.78442378 91.81391383 -148.84562741 90.31389897 -150.8984375 88.71875 C-151.8884375 88.05875 -152.8784375 87.39875 -153.8984375 86.71875 C-160.54460523 78.68796399 -163.56281275 69.85688331 -163.25390625 59.45703125 C-162.04696738 50.15962303 -156.8966084 41.804116 -149.8984375 35.71875 C-140.80622202 29.39031677 -133.64596172 26.96645496 -122.56640625 27.9609375 C-118.27659743 28.84722388 -114.72439932 30.44486816 -110.7734375 32.28125 C-99.98709879 37.18670316 -88.10961201 37.8144218 -76.7734375 34.09375 C-64.86718447 28.82256058 -57.81901798 21.19680525 -51.34765625 10.10546875 C-46.229388 1.67619139 -38.99892209 -4.25427367 -29.2734375 -6.65625 C-18.34644819 -8.51249862 -9.03966337 -6.51622377 0 0 Z " fill="#FC2704" transform="translate(240.8984375,60.28125)"/>
<path d="M0 0 C8.36225244 4.89851183 13.99235514 12.16025441 17.3046875 21.234375 C19.90738808 31.58668966 17.82696677 41.02286123 12.78515625 50.21484375 C8.08984066 57.30545077 0.06310762 62.4624926 -8 65 C-18.41237755 66.13868272 -26.14030267 65.08198166 -35.6640625 60.47265625 C-46.09625743 55.86734303 -58.581145 55.79458955 -69.25 59.6875 C-79.78944974 64.39231036 -86.92209259 72.06738387 -92.4375 82.0625 C-97.57599611 91.1580969 -104.70841462 96.90781215 -114.75 99.7890625 C-124.84341931 101.97071303 -134.09540871 99.90881759 -142.90234375 94.5703125 C-149.39435206 89.71037332 -155.17643242 83.03049327 -157 75 C-158.24873424 63.04782944 -157.04179884 52.66856161 -149.8125 42.625 C-140.60058807 34.02721553 -131.10735524 31.26515815 -118.7890625 31.5390625 C-112.74032133 31.91968469 -107.78047596 34.05554195 -102.32421875 36.52734375 C-92.19484869 41.014738 -81.84684904 40.80161351 -71.375 37.375 C-65.76451632 35.1569018 -57.80856329 31.61712659 -55 26 C-54.34 26 -53.68 26 -53 26 C-52.72929687 25.45214844 -52.45859375 24.90429688 -52.1796875 24.33984375 C-45.61313007 11.31544673 -39.29375928 2.4289821 -25.44140625 -3.3046875 C-16.61530336 -5.8183616 -8.06029412 -3.99909816 0 0 Z " fill="#FC2A08" transform="translate(199,125)"/>
<path d="M0 0 C2.29107959 1.68771977 4.23012078 3.4356914 6.12109375 5.5625 C6.12109375 6.2225 6.12109375 6.8825 6.12109375 7.5625 C6.78109375 7.5625 7.44109375 7.5625 8.12109375 7.5625 C16.34798858 18.60385885 19.04814263 32.07883506 17.43359375 45.5625 C16.02948442 54.23216836 13.3002545 61.48431364 8.12109375 68.5625 C7.46109375 69.5525 6.80109375 70.5425 6.12109375 71.5625 C5.46109375 71.5625 4.80109375 71.5625 4.12109375 71.5625 C3.62609375 73.0475 3.62609375 73.0475 3.12109375 74.5625 C-5.96880191 83.00641323 -19.06051672 86.28345159 -31.16479492 86.01782227 C-43.11614515 85.41739207 -55.30736114 81.13404511 -63.87890625 72.5625 C-72.18926092 62.16999054 -77.54507132 51.03622584 -76.87890625 37.5625 C-76.84925781 36.68207031 -76.81960938 35.80164063 -76.7890625 34.89453125 C-76.07792298 22.59702108 -70.65204259 10.77860566 -61.69140625 2.25 C-43.90442247 -12.57248649 -18.98526296 -11.78174835 0 0 Z M-48.87890625 17.5625 C-55.42011061 26.61370138 -56.79726277 34.51954624 -55.87890625 45.5625 C-54.15697869 52.69221086 -50.86689543 58.64879473 -44.86328125 63.03515625 C-37.56262796 67.37445183 -30.18132963 67.56435668 -21.87890625 66.5625 C-18.79757308 65.66715126 -16.46320207 64.44366999 -13.87890625 62.5625 C-12.80640625 61.82 -11.73390625 61.0775 -10.62890625 60.3125 C-4.87232657 54.55592032 -3.21608871 48.5424848 -2.87890625 40.5625 C-2.82734375 39.8921875 -2.77578125 39.221875 -2.72265625 38.53125 C-2.35643881 30.84068385 -4.91425561 23.44169155 -9.87890625 17.5625 C-21.33974867 8.7016672 -37.7884486 6.47204235 -48.87890625 17.5625 Z " fill="#454C53" transform="translate(449.87890625,66.4375)"/>
<path d="M0 0 C5.63233128 4.81440082 8.77530638 10.54088164 10 17.8125 C7.23058394 18.65080973 4.45964931 19.48332034 1.6875 20.3125 C0.90181641 20.55097656 0.11613281 20.78945312 -0.69335938 21.03515625 C-1.45068359 21.26074219 -2.20800781 21.48632812 -2.98828125 21.71875 C-4.03302612 22.03295898 -4.03302612 22.03295898 -5.09887695 22.35351562 C-7 22.8125 -7 22.8125 -10 22.8125 C-10.34611328 21.89017578 -10.34611328 21.89017578 -10.69921875 20.94921875 C-11.02535156 20.14097656 -11.35148438 19.33273438 -11.6875 18.5 C-12.00074219 17.69949219 -12.31398438 16.89898437 -12.63671875 16.07421875 C-14.38728007 13.16999238 -15.91843844 12.20118654 -19 10.8125 C-21.94924807 10.34167564 -21.94924807 10.34167564 -25 10.4375 C-26.010625 10.42976563 -27.02125 10.42203125 -28.0625 10.4140625 C-31.40011386 10.86677076 -33.29729937 11.83373704 -36 13.8125 C-37.42041821 16.65333641 -37.31452272 18.66727278 -37 21.8125 C-34.17106715 25.3214408 -31.52200011 26.61652466 -27.2734375 27.9609375 C-26.15839844 28.32703125 -25.04335938 28.693125 -23.89453125 29.0703125 C-21.57172208 29.8076304 -19.24880756 30.54461652 -16.92578125 31.28125 C-7.17898766 34.48168969 2.05851823 38.08594865 8 46.8125 C11.23068716 53.44571938 11.02469724 61.38295434 9.3828125 68.48046875 C6.74457398 75.26284299 1.88719137 79.86594603 -4.56640625 83.09765625 C-18.14555438 88.74382961 -31.41542038 87.99658749 -45 82.8125 C-46.30904297 82.36583984 -46.30904297 82.36583984 -47.64453125 81.91015625 C-53.85843532 79.01445634 -58.15253543 71.83598274 -61 65.8125 C-61.37677589 63.48578655 -61.71621007 61.15237582 -62 58.8125 C-59.06333774 58.14194715 -56.12577641 57.47590947 -53.1875 56.8125 C-52.35412109 56.62171875 -51.52074219 56.4309375 -50.66210938 56.234375 C-49.85966797 56.05390625 -49.05722656 55.8734375 -48.23046875 55.6875 C-47.12288208 55.43613281 -47.12288208 55.43613281 -45.99291992 55.1796875 C-44 54.8125 -44 54.8125 -41 54.8125 C-40.32880451 56.2687545 -39.66318193 57.72757867 -39 59.1875 C-38.62875 59.99960938 -38.2575 60.81171875 -37.875 61.6484375 C-37 63.8125 -37 63.8125 -37 65.8125 C-29.2878148 68.93906157 -22.32694025 70.49927332 -14.3125 67.375 C-11.39942032 64.14699278 -11.32246761 62.25286213 -11.30078125 58.03125 C-12.33715164 54.74265569 -14.16201787 53.68878694 -17 51.8125 C-19.8164936 50.4876708 -19.8164936 50.4876708 -22.875 49.4375 C-24.58042969 48.80521484 -24.58042969 48.80521484 -26.3203125 48.16015625 C-28.14175781 47.49306641 -28.14175781 47.49306641 -30 46.8125 C-52.02237361 38.65627266 -52.02237361 38.65627266 -56.5 31.125 C-59.43735401 24.63834322 -60.17712316 18.30825954 -58.3515625 11.3359375 C-55.16548228 3.41158413 -49.69220423 -1.76422945 -42.08984375 -5.4609375 C-28.763191 -10.09412893 -11.47186003 -8.12668833 0 0 Z " fill="#484E55" transform="translate(541,65.1875)"/>
<path d="M0 0 C0.92692657 -0.00807175 1.85385315 -0.01614349 2.80886841 -0.02445984 C4.78108844 -0.03832832 6.75333275 -0.04903803 8.72558594 -0.05688477 C11.71076962 -0.07394983 14.6948026 -0.11779166 17.6796875 -0.16210938 C30.46151791 -0.26759608 41.46409827 0.01843821 51.2265625 9.30078125 C57.99245082 17.215594 58.52564521 26.35383396 58.06201172 36.32080078 C57.40281764 43.37435703 53.08679832 49.62319914 47.8828125 54.23828125 C39.56512126 59.86547194 30.08036241 60.54797281 20.3203125 60.36328125 C15.64875 60.30140625 15.64875 60.30140625 10.8828125 60.23828125 C10.8828125 70.79828125 10.8828125 81.35828125 10.8828125 92.23828125 C-2.99001987 93.39435061 -2.99001987 93.39435061 -9.1171875 92.23828125 C-10.94836834 90.40710041 -10.24364009 87.8506108 -10.25271606 85.41345215 C-10.25069183 84.577052 -10.2486676 83.74065186 -10.24658203 82.87890625 C-10.24833435 82.00254517 -10.25008667 81.12618408 -10.25189209 80.2232666 C-10.25631182 77.31158498 -10.25337219 74.39996355 -10.25 71.48828125 C-10.250673 69.47428373 -10.251643 67.4602863 -10.25289917 65.44628906 C-10.25437631 61.2193932 -10.25222108 56.99251842 -10.24755859 52.765625 C-10.2418613 47.33447593 -10.24514022 41.90337626 -10.25113106 36.472229 C-10.25473624 32.31168238 -10.25359828 28.15114756 -10.25100327 23.99060059 C-10.25033388 21.9874267 -10.25116283 19.98425176 -10.25348282 17.9810791 C-10.25600865 15.18657573 -10.25216974 12.39215354 -10.24658203 9.59765625 C-10.24860626 8.7612561 -10.25063049 7.92485596 -10.25271606 7.06311035 C-10.22158451 -1.29660031 -7.50774213 0.06155951 0 0 Z M10.8828125 17.23828125 C10.8828125 25.48828125 10.8828125 33.73828125 10.8828125 42.23828125 C14.1003125 42.27953125 17.3178125 42.32078125 20.6328125 42.36328125 C21.64053711 42.38148926 22.64826172 42.39969727 23.68652344 42.41845703 C24.48864258 42.42345215 25.29076172 42.42844727 26.1171875 42.43359375 C27.34260254 42.4493042 27.34260254 42.4493042 28.59277344 42.46533203 C31.10168768 42.21658041 32.71676875 41.49528254 34.8828125 40.23828125 C34.8828125 39.57828125 34.8828125 38.91828125 34.8828125 38.23828125 C35.5428125 38.23828125 36.2028125 38.23828125 36.8828125 38.23828125 C39.63419007 33.38290907 39.1122627 28.50353537 37.8828125 23.23828125 C35.44248684 19.75210173 32.89150654 18.48401087 28.8828125 17.23828125 C25.77269425 17.001555 22.68701794 17.04981829 19.5703125 17.11328125 C15.27 17.17515625 15.27 17.17515625 10.8828125 17.23828125 Z " fill="#495057" transform="translate(649.1171875,58.76171875)"/>
<path d="M0 0 C8.32357641 6.06108783 14.21458849 13.03307097 17 23 C18.00018923 33.46709657 17.40958763 42.25766386 10.90625 50.7265625 C7.279317 54.92171501 3.9662303 58.42153986 -1 61 C-1.66 61 -2.32 61 -3 61 C-3 61.66 -3 62.32 -3 63 C-8.48269069 64.15664737 -13.80339274 64.11416255 -19.375 64.0625 C-20.30183594 64.05798828 -21.22867188 64.05347656 -22.18359375 64.04882812 C-24.45579709 64.03711574 -26.72786388 64.02071372 -29 64 C-29 63.34 -29 62.68 -29 62 C-29.5671875 61.89171875 -30.134375 61.7834375 -30.71875 61.671875 C-36.90149194 59.85093046 -42.46848046 55.29727931 -46 50 C-46.43183594 49.37996094 -46.86367187 48.75992188 -47.30859375 48.12109375 C-50.01608194 44.07903631 -51.70877498 40.95082529 -52 36 C-52.061875 35.19820312 -52.12375 34.39640625 -52.1875 33.5703125 C-52.68363089 22.62442481 -48.94376148 13.63039502 -41.75 5.4375 C-30.00921981 -4.96910062 -14.11060336 -7.79741489 0 0 Z " fill="#FC2907" transform="translate(167,24)"/>
<path d="M0 0 C7.193388 5.65441797 11.72540735 13.94524303 13.25 22.875 C14.34756092 32.31402388 11.94944311 39.94153501 7.4375 48.1875 C4.6582244 51.60203859 1.80809861 54.28792245 -1.75 56.875 C-2.72646484 57.61169922 -2.72646484 57.61169922 -3.72265625 58.36328125 C-11.88469153 63.47355025 -22.46392223 63.33320898 -31.75 61.875 C-35.87531322 60.37919677 -39.2787869 58.55006331 -42.75 55.875 C-42.75 55.215 -42.75 54.555 -42.75 53.875 C-43.3275 53.6275 -43.905 53.38 -44.5 53.125 C-50.320807 49.89121833 -52.57260194 44.93695798 -54.75 38.875 C-57.09117193 29.27927558 -56.5119823 19.60742867 -51.75 10.875 C-39.02116112 -6.6302794 -18.89900315 -11.80137752 0 0 Z " fill="#FD2502" transform="translate(166.75,196.125)"/>
<path d="M0 0 C50.78571429 0 50.78571429 0 60.5625 9.375 C65.8356724 15.61208563 67.56761613 21.83633254 67.5 29.8125 C67.49355469 30.60567627 67.48710937 31.39885254 67.48046875 32.21606445 C67.21075938 40.88491398 64.58692867 46.77810705 58.375 52.875 C49.13990868 60.15321324 38.37415285 61.05850902 27 61 C23.535 60.505 23.535 60.505 20 60 C20 70.56 20 81.12 20 92 C5 93 5 93 0 92 C0 61.64 0 31.28 0 0 Z M20 17 C20 25.25 20 33.5 20 42 C24.7953125 42.0928125 24.7953125 42.0928125 29.6875 42.1875 C30.68612061 42.21481201 31.68474121 42.24212402 32.71362305 42.27026367 C37.62469284 42.31628176 41.04466737 42.264719 45 39 C47.95349267 35.43543988 48.47512282 32.41660072 48.2890625 27.92578125 C47.70812605 24.05548845 45.87659513 21.76702074 43 19.25 C39.8853915 17.30336969 37.35768816 16.87689583 33.76953125 16.90234375 C32.68442261 16.90609009 32.68442261 16.90609009 31.57739258 16.90991211 C30.20877075 16.92356812 30.20877075 16.92356812 28.8125 16.9375 C25.904375 16.958125 22.99625 16.97875 20 17 Z " fill="#474D54" transform="translate(295,59)"/>
<path d="M0 0 C20.79 0 41.58 0 63 0 C63 5.94 63 11.88 63 18 C59.73546287 18.81613428 57.4724013 19.13534615 54.1875 19.125 C53.37667969 19.12757812 52.56585937 19.13015625 51.73046875 19.1328125 C48.46892899 18.97416822 45.2325769 18.4617967 42 18 C42 42.42 42 66.84 42 92 C35.07 92 28.14 92 21 92 C20.67 67.91 20.34 43.82 20 19 C16.37 19 12.74 19 9 19 C3.875 18.625 3.875 18.625 0 18 C-2.68328157 12.63343685 -0.37426972 5.98831547 0 0 Z " fill="#4E535A" transform="translate(561,59)"/>
<path d="M0 0 C20.46 0 40.92 0 62 0 C62.62524941 4.3767459 63.13827291 8.06130574 63.125 12.375 C63.12886719 13.65503906 63.12886719 13.65503906 63.1328125 14.9609375 C63 17 63 17 62 18 C59.79782961 18.26567739 57.58714148 18.4620001 55.375 18.625 C54.16585937 18.72039062 52.95671875 18.81578125 51.7109375 18.9140625 C48 19 48 19 41 18 C41.33 42.09 41.66 66.18 42 91 C36.03181478 92.70519578 33.39854364 93.18081368 27.5625 92.625 C26.32628906 92.51414062 25.09007812 92.40328125 23.81640625 92.2890625 C22.88699219 92.19367188 21.95757813 92.09828125 21 92 C19.94463241 88.54502807 19.87318752 85.36846828 19.87060547 81.76611328 C19.86745331 80.50445343 19.86430115 79.24279358 19.86105347 77.94290161 C19.86284381 76.56870489 19.8648949 75.19450848 19.8671875 73.8203125 C19.86651346 72.40550724 19.86554259 70.99070209 19.86428833 69.57589722 C19.86281513 66.6119476 19.86495315 63.64802814 19.86962891 60.68408203 C19.87531553 56.89577382 19.87205157 53.10753662 19.86605644 49.31923103 C19.86243173 46.39720125 19.86359836 43.47518811 19.86618423 40.55315781 C19.86684876 39.15699124 19.86604173 37.76082313 19.86370468 36.36465836 C19.86114796 34.40733115 19.86573956 32.44999861 19.87060547 30.49267578 C19.87140106 29.38111115 19.87219666 28.26954651 19.87301636 27.1242981 C19.99977362 24.00556982 20.41902838 21.0638783 21 18 C19.948125 18.185625 18.89625 18.37125 17.8125 18.5625 C11.83531173 19.33791902 5.97566679 18.56021876 0 18 C0 12.06 0 6.12 0 0 Z " fill="#484E55" transform="translate(761,59)"/>
<path d="M0 0 C6.6 0 13.2 0 20 0 C20 30.36 20 60.72 20 92 C14.03715206 94.98142397 6.65640235 92.36980013 0 92 C0 61.64 0 31.28 0 0 Z " fill="#464C53" transform="translate(725,59)"/>
<path d="M0 0 C1.65 0 3.3 0 5 0 C8.96 9.57 12.92 19.14 17 29 C20.53114893 20.95312771 20.53114893 20.95312771 24.06005859 12.90527344 C24.50172363 11.90012695 24.94338867 10.89498047 25.3984375 9.859375 C26.07398682 8.31975098 26.07398682 8.31975098 26.76318359 6.74902344 C27.78984699 4.46709886 28.85891636 2.22627747 30 0 C31.65 0 33.3 0 35 0 C35 16.83 35 33.66 35 51 C33.35 51 31.7 51 30 51 C28.59955959 39.371343 28.90342006 27.69063004 29 16 C28.75354736 16.63091553 28.50709473 17.26183105 28.25317383 17.91186523 C27.12653709 20.76224304 25.97006133 23.59954854 24.8125 26.4375 C24.42513672 27.43072266 24.03777344 28.42394531 23.63867188 29.44726562 C23.24873047 30.39150391 22.85878906 31.33574219 22.45703125 32.30859375 C22.10616455 33.18314209 21.75529785 34.05769043 21.39379883 34.95874023 C20 37 20 37 17.34643555 37.79321289 C16.57211182 37.86145264 15.79778809 37.92969238 15 38 C11.00708692 30.47489457 8.22187546 23.05468866 5 15 C4.67 26.88 4.34 38.76 4 51 C2.35 51 0.7 51 -1 51 C-1.16949902 45.80817953 -1.32982671 40.61618014 -1.48217773 35.42382812 C-1.53508276 33.66268563 -1.59036153 31.90161259 -1.64819336 30.140625 C-2.33383147 9.15413675 -2.33383147 9.15413675 -1 1 C-0.67 0.67 -0.34 0.34 0 0 Z " fill="#BAB9BC" transform="translate(631,172)"/>
<path d="M0 0 C1.2065625 0.0309375 1.2065625 0.0309375 2.4375 0.0625 C4.39687389 4.0999399 6.35399603 8.13846117 8.30908203 12.17797852 C8.97383562 13.55067041 9.63919258 14.92307027 10.30517578 16.29516602 C11.26495415 18.27282593 12.22252369 20.25154235 13.1796875 22.23046875 C13.47559784 22.83900192 13.77150818 23.4475351 14.0763855 24.07450867 C15.66239774 27.35945321 17.12927109 30.65717452 18.4375 34.0625 C19.55615755 30.41591523 19.64120892 26.9088849 19.75390625 23.109375 C19.77468735 22.44915344 19.79546844 21.78893188 19.81687927 21.10870361 C19.88200147 19.01006985 19.94108502 16.91131628 20 14.8125 C20.04322079 13.38540453 20.0868362 11.95832095 20.13085938 10.53125 C20.23764411 7.04179278 20.33901566 3.55220247 20.4375 0.0625 C22.0875 0.0625 23.7375 0.0625 25.4375 0.0625 C25.4375 16.8925 25.4375 33.7225 25.4375 51.0625 C23.4575 51.0625 21.4775 51.0625 19.4375 51.0625 C16.9635786 47.08655489 15.09081748 43.30583639 13.5625 38.875 C11.72994905 33.60278 9.37836802 28.73639656 6.8046875 23.7890625 C5.54538005 21.27764364 4.48090821 18.67102052 3.4375 16.0625 C3.1075 27.6125 2.7775 39.1625 2.4375 51.0625 C0.7875 51.0625 -0.8625 51.0625 -2.5625 51.0625 C-4.1765925 49.4484075 -3.68984318 47.69773592 -3.69189453 45.46679688 C-3.69504669 44.48908325 -3.69819885 43.51136963 -3.70144653 42.50402832 C-3.6994223 41.44051147 -3.69739807 40.37699463 -3.6953125 39.28125 C-3.69626923 38.19743042 -3.69722595 37.11361084 -3.69821167 35.99694824 C-3.69889365 33.7002761 -3.69703811 31.40360205 -3.69287109 29.10693359 C-3.68752312 25.57775572 -3.6928155 22.04870513 -3.69921875 18.51953125 C-3.69855797 16.29427055 -3.69727682 14.06900993 -3.6953125 11.84375 C-3.69733673 10.78023315 -3.69936096 9.71671631 -3.70144653 8.62097168 C-3.69829437 7.64325806 -3.69514221 6.66554443 -3.69189453 5.65820312 C-3.69109894 4.79296021 -3.69030334 3.92771729 -3.68948364 3.03625488 C-3.49421631 0.00114072 -3.06083579 0.07465453 0 0 Z M19.4375 36.0625 C20.4375 38.0625 20.4375 38.0625 20.4375 38.0625 Z " fill="#A4A5A9" transform="translate(559.5625,171.9375)"/>
<path d="M0 0 C1.65 0 3.3 0 5 0 C7.12026531 4.3588091 9.2381233 8.71877629 11.35375977 13.07983398 C12.07380194 14.56322791 12.79450069 16.04630332 13.51586914 17.52905273 C14.55267384 19.66046061 15.58711134 21.79300309 16.62109375 23.92578125 C17.10551186 24.9196862 17.10551186 24.9196862 17.59971619 25.93367004 C18.89032378 28.60062271 20.06176085 31.18528255 21 34 C21.9869401 22.6816869 22.49945871 11.34828502 23 0 C24.65 0 26.3 0 28 0 C28 16.83 28 33.66 28 51 C26.02 51 24.04 51 22 51 C20.30232061 47.39200181 18.61189779 43.78070139 16.92797852 40.16625977 C16.35474396 38.9384544 15.77957297 37.71155111 15.20239258 36.4855957 C14.37065973 34.71807371 13.54657475 32.94695934 12.72265625 31.17578125 C12.22515869 30.11270752 11.72766113 29.04963379 11.21508789 27.9543457 C10 25 10 25 9.45483398 22.17651367 C9.30473877 21.45826416 9.15464355 20.74001465 9 20 C8.34 19.67 7.68 19.34 7 19 C6.67 18.01 6.34 17.02 6 16 C5.67 27.55 5.34 39.1 5 51 C3.35 51 1.7 51 0 51 C-1.06769232 46.65872273 -1.14512828 42.43142691 -1.1328125 37.98828125 C-1.13376923 37.22001511 -1.13472595 36.45174896 -1.13571167 35.66020203 C-1.13639037 34.03722044 -1.13455776 32.4142361 -1.13037109 30.79125977 C-1.12505523 28.33798936 -1.13030757 25.8849051 -1.13671875 23.43164062 C-1.13972689 15.55181218 -0.99962215 7.83037353 0 0 Z " fill="#95969A" transform="translate(348,172)"/>
<path d="M0 0 C1.98 0 3.96 0 6 0 C11.28 11.22 16.56 22.44 22 34 C22.28933328 23.18482894 22.28933328 23.18482894 22.56811523 12.36938477 C22.60622391 11.01838104 22.64469181 9.66738737 22.68359375 8.31640625 C22.7083075 7.25528625 22.7083075 7.25528625 22.73352051 6.17272949 C22.8859282 1.1140718 22.8859282 1.1140718 24 0 C25.65 0 27.3 0 29 0 C29 16.83 29 33.66 29 51 C27.02 51 25.04 51 23 51 C19.13970082 43.52580372 15.65052566 35.96745597 12.38671875 28.21484375 C10.73711936 24.39056121 8.8899072 20.70981783 7 17 C6.67 16.01 6.34 15.02 6 14 C5.67 26.21 5.34 38.42 5 51 C3.35 51 1.7 51 0 51 C0 34.17 0 17.34 0 0 Z " fill="#AFAEB1" transform="translate(681,172)"/>
<path d="M0 0 C1.65 0 3.3 0 5 0 C5 7.59 5 15.18 5 23 C10.28 23 15.56 23 21 23 C20.87431641 20.88658203 20.87431641 20.88658203 20.74609375 18.73046875 C20.64292607 16.8828294 20.5400781 15.03517218 20.4375 13.1875 C20.38142578 12.25873047 20.32535156 11.32996094 20.26757812 10.37304688 C20.21923828 9.48037109 20.17089844 8.58769531 20.12109375 7.66796875 C20.0739624 6.84578857 20.02683105 6.0236084 19.97827148 5.17651367 C20 3 20 3 21 0 C22.98 0 24.96 0 27 0 C27 16.83 27 33.66 27 51 C25.02 51 23.04 51 21 51 C21 43.41 21 35.82 21 28 C15.72 28 10.44 28 5 28 C5 35.59 5 43.18 5 51 C3.02 51 1.04 51 -1 51 C-1.02526787 43.89755001 -1.04283201 36.79511152 -1.05493164 29.69262695 C-1.05997349 27.27432828 -1.06680678 24.85603267 -1.07543945 22.43774414 C-1.08751157 18.97020717 -1.09322963 15.50271034 -1.09765625 12.03515625 C-1.10281754 10.94662857 -1.10797882 9.85810089 -1.11329651 8.73658752 C-1.11337204 7.73562546 -1.11344757 6.73466339 -1.11352539 5.70336914 C-1.115746 4.81734512 -1.11796661 3.93132111 -1.12025452 3.01844788 C-1 1 -1 1 0 0 Z " fill="#959599" transform="translate(515,172)"/>
<path d="M0 0 C17.57894737 0 17.57894737 0 23.75 4.1875 C27.61166477 9.78691392 27.32203092 17.34688761 27.25 23.875 C27.23984863 25.19673218 27.23984863 25.19673218 27.22949219 26.54516602 C27.11424736 33.78615944 26.89313568 40.44090491 23.4375 46.9375 C19.6619954 50.13215774 16.91848431 50.89334103 12 52 C8.04 51.67 4.08 51.34 0 51 C0 34.17 0 17.34 0 0 Z M5 5 C5 18.2 5 31.4 5 45 C8.96 45 12.92 45 17 45 C23.03940068 38.96059932 22.18016357 30.44431346 22.19018555 22.40942383 C22.20311912 18.5773632 22.20311912 18.5773632 21 15 C20.87625 13.8553125 20.87625 13.8553125 20.75 12.6875 C19.66422031 8.79678943 18.2905037 7.35035979 15 5 C11.7 5 8.4 5 5 5 Z " fill="#B4B4B7" transform="translate(713,172)"/>
<path d="M0 0 C3.23758909 2.44793321 4.38393834 5.15962851 5.5625 8.9375 C5.95068359 12.46679688 5.95068359 12.46679688 5.9609375 16.15625 C5.96380768 16.81782104 5.96667786 17.47939209 5.96963501 18.16101074 C5.97166172 19.54924382 5.96623013 20.93750637 5.95361328 22.32568359 C5.9375372 24.43262488 5.95350723 26.53764856 5.97265625 28.64453125 C5.97067357 30.00260834 5.96682937 31.36068425 5.9609375 32.71875 C5.95755371 33.93626953 5.95416992 35.15378906 5.95068359 36.40820312 C5.41205474 41.30532182 4.2357807 45.5032594 0.375 48.8125 C-4.72755078 50.85352031 -9.11148219 51.75159807 -14.25 49.6875 C-18.23347165 47.50049595 -19.83827043 46.4680806 -21.49511719 42.23608398 C-22.47218486 38.81609402 -22.69582857 36.02106841 -22.703125 32.47265625 C-22.70570313 31.26029297 -22.70828125 30.04792969 -22.7109375 28.79882812 C-22.70320313 27.54521484 -22.69546875 26.29160156 -22.6875 25 C-22.69523437 23.75025391 -22.70296875 22.50050781 -22.7109375 21.21289062 C-22.68007946 6.68646837 -22.68007946 6.68646837 -18.5 1.5625 C-13.31755647 -2.52063733 -6.00025914 -1.85462555 0 0 Z M-15.06323242 5.49951172 C-16.91150916 8.77840522 -16.86825435 11.74153005 -16.8359375 15.40625 C-16.83880768 16.123573 -16.84167786 16.840896 -16.84463501 17.57995605 C-16.84667169 19.09286287 -16.84116944 20.60579626 -16.82861328 22.11865234 C-16.81255237 24.42996284 -16.82847366 26.73952492 -16.84765625 29.05078125 C-16.84567375 30.52344135 -16.84182992 31.99610036 -16.8359375 33.46875 C-16.84201019 34.15739136 -16.84808289 34.84603271 -16.8543396 35.55554199 C-16.81026594 38.5732032 -16.5798222 40.67665529 -15.12353516 43.34570312 C-12.43085576 45.88787944 -10.05409925 45.87514484 -6.4375 45.9375 C-3.251275 44.66301 -1.86383848 43.78571658 -0.31738281 40.70898438 C0.67776515 37.57443396 0.82121696 35.00500163 0.828125 31.71875 C0.83070313 30.53925781 0.83328125 29.35976562 0.8359375 28.14453125 C0.82820313 26.92121094 0.82046875 25.69789063 0.8125 24.4375 C0.82023437 23.21417969 0.82796875 21.99085938 0.8359375 20.73046875 C0.83207031 18.96123047 0.83207031 18.96123047 0.828125 17.15625 C0.82586914 16.08310547 0.82361328 15.00996094 0.82128906 13.90429688 C0.4559948 9.71650832 -0.45216233 6.92283767 -3.4375 3.9375 C-5.76988067 3.54248771 -5.76988067 3.54248771 -8.375 3.5625 C-9.25027344 3.53414062 -10.12554687 3.50578125 -11.02734375 3.4765625 C-13.51165627 3.7247328 -13.51165627 3.7247328 -15.06323242 5.49951172 Z " fill="#A7A7AB" transform="translate(401.4375,173.0625)"/>
<path d="M0 0 C3.55425754 2.77405466 4.60660951 5.6617278 5.5625 10 C5.75 13.5 5.75 13.5 5.5625 16 C3.90635343 16.38218767 2.23792976 16.71395102 0.5625 17 C-0.4375 16 -0.4375 16 -0.53515625 13.93359375 C-0.52355469 13.10988281 -0.51195312 12.28617188 -0.5 11.4375 C-0.49097656 10.61121094 -0.48195313 9.78492188 -0.47265625 8.93359375 C-0.46105469 8.29550781 -0.44945312 7.65742188 -0.4375 7 C-1.0975 6.67 -1.7575 6.34 -2.4375 6 C-3.0975 5.34 -3.7575 4.68 -4.4375 4 C-8.131007 3.79853598 -10.91690432 3.82646811 -14.4375 5 C-15.9821663 8.08933259 -15.6212995 11.35449125 -15.640625 14.74609375 C-15.64632507 15.51301041 -15.65202515 16.27992706 -15.65789795 17.07008362 C-15.6673486 18.69327412 -15.67388219 20.31648382 -15.67773438 21.93969727 C-15.68744851 24.42433029 -15.71847346 26.90813903 -15.75 29.39257812 C-15.75652927 30.96874508 -15.76178004 32.54491796 -15.765625 34.12109375 C-15.7779718 34.86491806 -15.7903186 35.60874237 -15.80303955 36.37510681 C-15.79081681 40.39989948 -15.79081681 40.39989948 -14.13183594 43.97680664 C-11.30671994 45.68286733 -8.64900064 45.22536847 -5.4375 45 C-3.4575 44.505 -3.4575 44.505 -1.4375 44 C-0.7775 38.72 -0.1175 33.44 0.5625 28 C-4.3875 28.495 -4.3875 28.495 -9.4375 29 C-9.7675 27.35 -10.0975 25.7 -10.4375 24 C-5.1575 24 0.1225 24 5.5625 24 C6.0181314 41.01023891 6.0181314 41.01023891 2.5625 47 C-1.50193771 49.86358112 -5.49326811 50.82950925 -10.4375 51 C-14.70431053 50.11829745 -17.63211444 49.01322699 -20.375 45.5625 C-23.12756822 38.92395312 -22.62139987 32.28334858 -22.625 25.1875 C-22.63724609 23.92873047 -22.64949219 22.66996094 -22.66210938 21.37304688 C-22.68522656 6.75527772 -22.68522656 6.75527772 -18.5 1.625 C-13.31378297 -2.46111039 -6.02930015 -1.75397823 0 0 Z " fill="#9E9FA2" transform="translate(610.4375,173)"/>
<path d="M0 0 C16 0 16 0 22 3 C26.27931511 7.6262866 27.39969275 11.41568204 27.359375 17.57421875 C26.75148025 21.67750833 24.64245888 24.86107915 22 28 C21.34 28.33 20.68 28.66 20 29 C21.73994128 34.84690927 24.58384705 39.72733621 27.63671875 44.9765625 C29 48 29 48 28.70703125 50.3984375 C28.47371094 50.92695313 28.24039062 51.45546875 28 52 C25.08754209 51.41750842 23.41736176 50.59355341 21.6953125 48.14453125 C20.39216162 45.79319379 19.18220346 43.41430512 18 41 C17.40445312 39.86111328 17.40445312 39.86111328 16.796875 38.69921875 C14 33.31227993 14 33.31227993 14 31 C10.7 31 7.4 31 4 31 C4 37.6 4 44.2 4 51 C2.68 51 1.36 51 0 51 C0 34.17 0 17.34 0 0 Z M4 5 C4 11.6 4 18.2 4 25 C8.81568911 25.96313782 12.30292447 26.29710036 17 25 C19.38312703 23.10571954 20.6500559 21.69988821 22 19 C22.3751455 14.02932218 22.15878799 10.94848498 19 7 C15.72013188 4.88419222 13.10380412 4.78324276 9.25 4.875 C6.65125 4.936875 6.65125 4.936875 4 5 Z " fill="#95969A" transform="translate(443,172)"/>
<path d="M0 0 C3.13603967 2.58262091 4.98325885 4.39684451 5.41796875 8.546875 C5.38316406 9.52140625 5.34835937 10.4959375 5.3125 11.5 C5.28542969 12.48484375 5.25835937 13.4696875 5.23046875 14.484375 C5.19566406 15.23203125 5.16085937 15.9796875 5.125 16.75 C3.475 16.75 1.825 16.75 0.125 16.75 C0.08761719 16.13511719 0.05023438 15.52023438 0.01171875 14.88671875 C-0.08689453 13.67435547 -0.08689453 13.67435547 -0.1875 12.4375 C-0.24550781 11.63699219 -0.30351562 10.83648437 -0.36328125 10.01171875 C-0.96915174 7.3338637 -1.7204988 6.41086846 -3.875 4.75 C-7.33158971 3.69799444 -9.28355411 3.56999473 -12.75 4.625 C-15.2021974 7.0771974 -15.30091003 7.83062182 -15.5 11.1875 C-15.28942607 14.37178877 -15.13897162 15.43141357 -13.0625 17.9375 C-11.13547443 19.03325964 -9.19579284 20.10768898 -7.234375 21.140625 C2.97349906 26.54479362 2.97349906 26.54479362 5.125 30.75 C6.3269217 35.73069068 6.85072648 40.20712254 4.125 44.75 C1.23447378 48.36315777 -1.31862618 49.90622707 -5.875 50.75 C-10.66712616 50.45428335 -14.5818552 49.78451584 -18.375 46.75 C-20.44738691 42.60522617 -21.43935829 38.36267689 -21.875 33.75 C-20.875 32.75 -20.875 32.75 -18.3125 32.6875 C-17.508125 32.708125 -16.70375 32.72875 -15.875 32.75 C-15.76542969 33.36488281 -15.65585937 33.97976562 -15.54296875 34.61328125 C-15.38441406 35.42152344 -15.22585938 36.22976562 -15.0625 37.0625 C-14.91167969 37.86300781 -14.76085937 38.66351563 -14.60546875 39.48828125 C-13.7829149 42.03511911 -12.98950285 43.13332913 -10.875 44.75 C-7.57177822 45.17168789 -5.56753713 45.08690996 -2.5625 43.625 C-0.21521395 41.01690439 -0.01162042 39.23382071 0.125 35.75 C-0.7197856 32.46138905 -0.7197856 32.46138905 -1.875 29.75 C-3.525 29.42 -5.175 29.09 -6.875 28.75 C-6.875 28.09 -6.875 27.43 -6.875 26.75 C-7.46667969 26.60304687 -8.05835938 26.45609375 -8.66796875 26.3046875 C-14.60066517 24.6206921 -17.6501303 23.09119043 -20.875 17.75 C-22.24396064 13.54044602 -22.26019596 10.06028131 -20.625 5.9375 C-17.49975998 0.24509853 -17.49975998 0.24509853 -14.0546875 -0.8046875 C-9.22149081 -1.79211478 -4.55697424 -1.98129315 0 0 Z " fill="#838589" transform="translate(505.875,173.25)"/>
<path d="M0 0 C2.99532098 2.46673493 4.86727628 4.45154462 5.63671875 8.328125 C5.69472656 9.20984375 5.75273438 10.0915625 5.8125 11 C5.91111328 12.33804688 5.91111328 12.33804688 6.01171875 13.703125 C6.04910156 14.37859375 6.08648438 15.0540625 6.125 15.75 C4.46885343 16.13218767 2.80042976 16.46395102 1.125 16.75 C-0.91026279 14.71473721 -0.74291601 10.85725794 -1.1796875 8.09765625 C-1.70611044 5.40017477 -1.70611044 5.40017477 -4.875 3.75 C-6.87218807 3.61128641 -6.87218807 3.61128641 -8.9375 3.9375 C-9.62972656 4.01355469 -10.32195313 4.08960938 -11.03515625 4.16796875 C-13.269538 4.6636457 -13.269538 4.6636457 -14.875 7.75 C-15.41081021 11.88339305 -15.45279067 13.94109307 -13 17.375 C-10.27656128 19.44481343 -7.93949742 20.74672883 -4.875 22.1875 C0.41220865 24.67745221 3.47361748 27.44723495 6.125 32.75 C6.68395711 37.33161565 6.51175023 40.87981198 4.625 45.125 C1.40922826 48.50156033 -1.25363234 50.05600622 -5.875 50.75 C-10.84915092 50.57075132 -14.62986888 49.87061801 -18.375 46.5 C-21.0179863 41.65452512 -22.47501711 38.19005817 -20.875 32.75 C-19.20888095 32.707279 -17.54117115 32.70936168 -15.875 32.75 C-14.01372594 34.61127406 -14.41381861 37.24929136 -14.15625 39.7421875 C-13.9087405 41.95138785 -13.9087405 41.95138785 -12.875 44.75 C-11.01875 44.7809375 -11.01875 44.7809375 -9.125 44.8125 C-8.42890625 44.82410156 -7.7328125 44.83570313 -7.015625 44.84765625 C-4.84207597 44.74849799 -2.96193463 44.34693851 -0.875 43.75 C0.53869232 37.130043 0.53869232 37.130043 -1.5625 31 C-5.23046038 28.05734252 -9.76674978 26.26967727 -14.03515625 24.375 C-17.28510747 22.51533053 -18.90927866 20.93215596 -20.875 17.75 C-21.83675645 12.43205258 -21.77116208 7.40955941 -19.1875 2.625 C-13.60849355 -1.89851874 -6.6375493 -2.885891 0 0 Z " fill="#707278" transform="translate(764.875,173.25)"/>
<path d="M0 0 C1.65 0 3.3 0 5 0 C5.0093457 1.22106445 5.01869141 2.44212891 5.02832031 3.70019531 C5.06820923 8.23295499 5.13396493 12.76503515 5.20751953 17.29736328 C5.23573553 19.25853747 5.25694694 21.21982551 5.27099609 23.18115234 C5.29241699 26.00156977 5.33906209 28.82061743 5.390625 31.640625 C5.39185364 32.51680481 5.39308228 33.39298462 5.39434814 34.29571533 C5.48948526 39.26803745 5.48948526 39.26803745 7.88574219 43.52636719 C10.40859271 45.28478817 11.91523802 45.9247619 15 46 C17.80329738 44.93478871 17.80329738 44.93478871 20 43 C21.30314523 39.52378014 21.09865514 36.03629217 21.0625 32.36328125 C21.05476563 31.06326172 21.04703125 29.76324219 21.0390625 28.42382812 C21.02050326 26.37474123 21.00013275 24.32567821 20.97949219 22.27661133 C20.91035003 14.76104046 20.9487713 7.44894084 22 0 C23.65 0 25.3 0 27 0 C27.0991017 6.01394883 27.17157916 12.02741915 27.21972656 18.04199219 C27.2398042 20.0866728 27.26707225 22.13129627 27.30175781 24.17578125 C27.35044519 27.11993537 27.37300744 30.06332834 27.390625 33.0078125 C27.41127014 33.9174173 27.43191528 34.82702209 27.45318604 35.76419067 C27.45520017 41.50039303 26.74662243 44.59370237 23 49 C19.8409365 51.27290222 16.52864674 52.06114587 12.65625 51.90625 C7.38456898 50.99249196 4.41556093 49.26945116 1 45 C-0.67727927 41.64544146 -0.26582506 37.85415229 -0.3515625 34.16015625 C-0.37471527 33.28225937 -0.39786804 32.40436249 -0.42172241 31.49986267 C-0.4693812 29.6413249 -0.51461291 27.78272356 -0.55761719 25.92407227 C-0.62464936 23.07739063 -0.7024371 20.23114261 -0.78125 17.38476562 C-0.82617201 15.58074526 -0.87046382 13.77670908 -0.9140625 11.97265625 C-0.93796051 11.11946304 -0.96185852 10.26626984 -0.98648071 9.38722229 C-1.05874969 5.98490667 -1.084728 3.25418401 0 0 Z " fill="#74767C" transform="translate(411,172)"/>
<path d="M0 0 C1.98 0 3.96 0 6 0 C7.33957921 2.78871177 8.67058435 5.58143062 10 8.375 C10.3815625 9.1690625 10.763125 9.963125 11.15625 10.78125 C11.5171875 11.54179687 11.878125 12.30234375 12.25 13.0859375 C12.58515625 13.7876709 12.9203125 14.4894043 13.265625 15.21240234 C14 17 14 17 14 19 C13.01 18.67 12.02 18.34 11 18 C11.33 20.31 11.66 22.62 12 25 C10 24 10 24 6 14 C5.67 26.21 5.34 38.42 5 51 C3.35 51 1.7 51 0 51 C0 34.17 0 17.34 0 0 Z " fill="#BBBABD" transform="translate(681,172)"/>
<path d="M0 0 C1.2065625 0.0309375 1.2065625 0.0309375 2.4375 0.0625 C5.19452189 4.85732068 5.97078373 8.64859132 6.4375 14.0625 C5.1175 13.7325 3.7975 13.4025 2.4375 13.0625 C2.4375 25.6025 2.4375 38.1425 2.4375 51.0625 C0.7875 51.0625 -0.8625 51.0625 -2.5625 51.0625 C-4.1765925 49.4484075 -3.68984318 47.69773592 -3.69189453 45.46679688 C-3.69504669 44.48908325 -3.69819885 43.51136963 -3.70144653 42.50402832 C-3.6994223 41.44051147 -3.69739807 40.37699463 -3.6953125 39.28125 C-3.69626923 38.19743042 -3.69722595 37.11361084 -3.69821167 35.99694824 C-3.69889365 33.7002761 -3.69703811 31.40360205 -3.69287109 29.10693359 C-3.68752312 25.57775572 -3.6928155 22.04870513 -3.69921875 18.51953125 C-3.69855797 16.29427055 -3.69727682 14.06900993 -3.6953125 11.84375 C-3.69733673 10.78023315 -3.69936096 9.71671631 -3.70144653 8.62097168 C-3.69829437 7.64325806 -3.69514221 6.66554443 -3.69189453 5.65820312 C-3.69109894 4.79296021 -3.69030334 3.92771729 -3.68948364 3.03625488 C-3.49421631 0.00114072 -3.06083579 0.07465453 0 0 Z " fill="#85868B" transform="translate(559.5625,171.9375)"/>
<path d="M0 0 C1.98 0 3.96 0 6 0 C6 16.83 6 33.66 6 51 C4.02 51 2.04 51 0 51 C-0.99007047 43.59804456 -1.15422276 36.33776153 -1.125 28.875 C-1.12306641 27.68608154 -1.12113281 26.49716309 -1.11914062 25.2722168 C-1.07760458 16.81097734 -0.79030884 8.42525671 0 0 Z " fill="#7C7E83" transform="translate(546,172)"/>
<path d="M0 0 C1.98 0 3.96 0 6 0 C6 16.83 6 33.66 6 51 C4.02 51 2.04 51 0 51 C-0.80474431 44.16517278 -1.15986683 37.44247253 -1.125 30.5625 C-1.12306641 29.62325684 -1.12113281 28.68401367 -1.11914062 27.71630859 C-1.06317762 18.45909443 -0.59725975 9.23619539 0 0 Z " fill="#7C7D81" transform="translate(475,172)"/>
<path d="M0 0 C1.65 0 3.3 0 5 0 C5 16.83 5 33.66 5 51 C3.35 51 1.7 51 0 51 C-1.598167 49.401833 -1.12730981 47.72473502 -1.12939453 45.51196289 C-1.13254669 44.55749771 -1.13569885 43.60303253 -1.13894653 42.61964417 C-1.1369223 41.58113815 -1.13489807 40.54263214 -1.1328125 39.47265625 C-1.13376923 38.41340439 -1.13472595 37.35415253 -1.13571167 36.26280212 C-1.1363937 34.01740459 -1.13453784 31.7720051 -1.13037109 29.52661133 C-1.12502845 26.080847 -1.13031262 22.63521334 -1.13671875 19.18945312 C-1.13605787 17.01302054 -1.1347765 14.83658805 -1.1328125 12.66015625 C-1.13483673 11.62367447 -1.13686096 10.58719269 -1.13894653 9.51930237 C-1.13579437 8.56168503 -1.13264221 7.60406769 -1.12939453 6.61743164 C-1.12859894 5.77217422 -1.12780334 4.92691681 -1.12698364 4.05604553 C-1 2 -1 2 0 0 Z " fill="#AFAFB2" transform="translate(671,172)"/>
<path d="M0 0 C1.65 0 3.3 0 5 0 C5.0991017 6.01394883 5.17157916 12.02741915 5.21972656 18.04199219 C5.2398042 20.0866728 5.26707225 22.13129627 5.30175781 24.17578125 C5.35044519 27.11993537 5.37300744 30.06332834 5.390625 33.0078125 C5.41127014 33.9174173 5.43191528 34.82702209 5.45318604 35.76419067 C5.45520017 41.50039303 4.74662243 44.59370237 1 49 C-2.24532014 51.33496267 -5.55088366 52.15502175 -9.51953125 51.73046875 C-11.72234237 51.2482786 -13.85417449 50.69043923 -16 50 C-13.17068148 49.19071295 -10.68915923 48.88851401 -7.75 48.9375 C-5.89375 48.9684375 -5.89375 48.9684375 -4 49 C-4.99 48.01 -5.98 47.02 -7 46 C-6.195625 45.5875 -5.39125 45.175 -4.5625 44.75 C-1.93665769 43.31146694 -1.93665769 43.31146694 -1.34375 41.30541992 C-0.89536478 38.29824544 -0.9075671 35.40417323 -0.9375 32.36328125 C-0.94523437 31.06326172 -0.95296875 29.76324219 -0.9609375 28.42382812 C-0.97949674 26.37474123 -0.99986725 24.32567821 -1.02050781 22.27661133 C-1.08964997 14.76104046 -1.0512287 7.44894084 0 0 Z " fill="#B9B8BC" transform="translate(433,172)"/>
<path d="M0 0 C16 0 16 0 19 2 C13.39 2 7.78 2 2 2 C2 17.51 2 33.02 2 49 C6.95 49 11.9 49 17 49 C17 48.34 17 47.68 17 47 C12.71 47 8.42 47 4 47 C4 32.81 4 18.62 4 4 C7.63 4 11.26 4 15 4 C11 6 11 6 5 5 C5 18.2 5 31.4 5 45 C16.15602222 45.31615138 16.15602222 45.31615138 19.75 41.4375 C20.1625 40.633125 20.575 39.82875 21 39 C20.67 40.98 20.34 42.96 20 45 C20.99 45 21.98 45 23 45 C22.05327882 47.35704293 21.44725168 48.72222261 19.2578125 50.08203125 C11.87943556 52.60905779 8.69993129 51.72499427 0 51 C0 34.17 0 17.34 0 0 Z " fill="#ACACAF" transform="translate(713,172)"/>
<path d="M0 0 C3.55425754 2.77405466 4.60660951 5.6617278 5.5625 10 C5.75 13.5 5.75 13.5 5.5625 16 C3.90635343 16.38218767 2.23792976 16.71395102 0.5625 17 C-0.4375 16 -0.4375 16 -0.53515625 13.93359375 C-0.52355469 13.10988281 -0.51195312 12.28617188 -0.5 11.4375 C-0.49097656 10.61121094 -0.48195313 9.78492188 -0.47265625 8.93359375 C-0.46105469 8.29550781 -0.44945312 7.65742188 -0.4375 7 C-1.0975 6.67 -1.7575 6.34 -2.4375 6 C-3.0975 5.34 -3.7575 4.68 -4.4375 4 C-8.131007 3.79853598 -10.91690432 3.82646811 -14.4375 5 C-14.7675 5.66 -15.0975 6.32 -15.4375 7 C-16.0975 7 -16.7575 7 -17.4375 7 C-17.7675 18.55 -18.0975 30.1 -18.4375 42 C-19.0975 42 -19.7575 42 -20.4375 42 C-20.53644543 36.66151328 -20.60900414 31.32356131 -20.65722656 25.984375 C-20.67733061 24.1685252 -20.70461835 22.35274005 -20.73925781 20.53710938 C-20.78783039 17.92561895 -20.81048027 15.31498502 -20.828125 12.703125 C-20.84877014 11.89256653 -20.86941528 11.08200806 -20.89068604 10.24688721 C-20.89212417 6.62689771 -20.78722039 4.4724293 -18.60058594 1.51855469 C-13.15049956 -2.30757819 -6.15493137 -1.79052549 0 0 Z " fill="#AAAAAD" transform="translate(610.4375,173)"/>
<path d="M0 0 C4.62568658 4.04261684 5.61409896 9.80712828 6.328125 15.71484375 C6.6990836 24.94906311 3.86308458 33.7967818 -2 41 C-4.17398433 43.26140998 -6.46391257 45.1560222 -9 47 C-9.97646484 47.73669922 -9.97646484 47.73669922 -10.97265625 48.48828125 C-19.13469153 53.59855025 -29.71392223 53.45820898 -39 52 C-43.12531322 50.50419677 -46.5287869 48.67506331 -50 46 C-50 45.34 -50 44.68 -50 44 C-50.5775 43.7525 -51.155 43.505 -51.75 43.25 C-54.3002997 41.83316683 -56.01785701 40.12372463 -58 38 C-57.67 37.01 -57.34 36.02 -57 35 C-55.125 35.6875 -55.125 35.6875 -53 37 C-52.31246699 38.65816784 -51.64438717 40.32459336 -51 42 C-50.01 42.33 -49.02 42.66 -48 43 C-48 43.66 -48 44.32 -48 45 C-45.03 45.99 -42.06 46.98 -39 48 C-39 48.66 -39 49.32 -39 50 C-31.74 50 -24.48 50 -17 50 C-17 49.34 -17 48.68 -17 48 C-16.360625 47.87625 -15.72125 47.7525 -15.0625 47.625 C-14.381875 47.41875 -13.70125 47.2125 -13 47 C-12.505 46.01 -12.505 46.01 -12 45 C-11.360625 44.87625 -10.72125 44.7525 -10.0625 44.625 C-9.381875 44.41875 -8.70125 44.2125 -8 44 C-7.3162955 42.67532254 -6.65035814 41.34136367 -6 40 C-5.319375 39.690625 -4.63875 39.38125 -3.9375 39.0625 C-3.298125 38.711875 -2.65875 38.36125 -2 38 C-1.18828772 35.44480079 -1.18828772 35.44480079 -1 33 C-0.34 33 0.32 33 1 33 C1 31.35 1 29.7 1 28 C1.66 28 2.32 28 3 28 C3 21.4 3 14.8 3 8 C2.34 8 1.68 8 1 8 C0.505 4.04 0.505 4.04 0 0 Z " fill="#EF9A8E" transform="translate(174,206)"/>
<path d="M0 0 C0 0.33 0 0.66 0 1 C-3.66820443 1.2684052 -5.81508905 1.08555243 -9.19140625 -0.4765625 C-16.13052676 -3.56438406 -25.74314431 -3.60736045 -32.82421875 -0.93359375 C-37.60734586 2.12994491 -41.52417004 6.31092283 -45.37109375 10.4609375 C-47 12 -47 12 -49 12 C-51.51565655 21.54601814 -53.1076989 32.78193555 -49 42 C-48.875 44.8125 -48.875 44.8125 -49 47 C-53.63403469 42.95008733 -54.6219208 37.16866379 -55.328125 31.25 C-55.74565785 20.75203111 -51.59024782 12.40029155 -44.875 4.5 C-30.96894964 -7.5922177 -16.2408485 -8.82018025 0 0 Z " fill="#EE8879" transform="translate(133,94)"/>
<path d="M0 0 C2.37160148 2.37160148 2.31983352 3.00621122 2.375 6.25 C2.24018492 10.90860982 1.2911607 13.54428126 -2 17 C-6.33431109 19.81630352 -10.18392452 20.27709712 -15.25 19.5 C-18.57439239 18.66380314 -19.89632783 18.09330496 -22.5 15.75 C-25.1429863 10.90452512 -26.60001711 7.44005817 -25 2 C-23.33388095 1.957279 -21.66617115 1.95936168 -20 2 C-18.13872594 3.86127406 -18.53881861 6.49929136 -18.28125 8.9921875 C-18.0337405 11.20138785 -18.0337405 11.20138785 -17 14 C-15.14375 14.0309375 -15.14375 14.0309375 -13.25 14.0625 C-12.55390625 14.07410156 -11.8578125 14.08570313 -11.140625 14.09765625 C-8.66000824 14.05530256 -8.66000824 14.05530256 -5 13 C-4.34 9.7 -3.68 6.4 -3 3 C-2.67 3 -2.34 3 -2 3 C-2 5.31 -2 7.62 -2 10 C-1.34 10 -0.68 10 0 10 C0 6.7 0 3.4 0 0 Z " fill="#7A7D82" transform="translate(769,204)"/>
<path d="M0 0 C2.4375 0.75 2.4375 0.75 5 2 C6.40432262 5.53026719 6.12943721 9.28371459 6.1328125 13.03125 C6.13376923 13.70418091 6.13472595 14.37711182 6.13571167 15.07043457 C6.13639032 16.48917739 6.13455806 17.90792336 6.13037109 19.32666016 C6.12501833 21.49258428 6.13032671 23.65830104 6.13671875 25.82421875 C6.13605791 27.20572962 6.13477663 28.58724037 6.1328125 29.96875 C6.13168457 31.22107422 6.13055664 32.47339844 6.12939453 33.76367188 C6.02435958 36.39073466 5.78415855 38.51125053 5 41 C3.0625 41.5625 3.0625 41.5625 1 42 C0 41 0 41 -0.09765625 37.96826172 C-0.09068639 36.62203735 -0.07857968 35.27583388 -0.0625 33.9296875 C-0.05871338 33.21523468 -0.05492676 32.50078186 -0.05102539 31.76467896 C-0.03466982 28.70047024 -0.00678086 25.63639354 0.02050781 22.57226562 C0.03873329 20.337246 0.05074853 18.10224912 0.0625 15.8671875 C0.07079834 15.18461884 0.07909668 14.50205017 0.08764648 13.79879761 C0.10435828 10.47523946 -0.09137464 7.36612783 -0.56640625 4.07080078 C-0.70949219 3.05743652 -0.85257812 2.04407227 -1 1 C-0.67 0.67 -0.34 0.34 0 0 Z " fill="#818387" transform="translate(401,176)"/>
<path d="M0 0 C1.32 0 2.64 0 4 0 C4 7.92 4 15.84 4 24 C7.63 24 11.26 24 15 24 C15 24.33 15 24.66 15 25 C11.37 25 7.74 25 4 25 C4 32.92 4 40.84 4 49 C2.68 49 1.36 49 0 49 C0 32.83 0 16.66 0 0 Z " fill="#4D5158" transform="translate(515,173)"/>
<path d="M0 0 C0.99 0 1.98 0 3 0 C3 16.17 3 32.34 3 49 C1.02 48.67 -0.96 48.34 -3 48 C-3.66 44.7 -4.32 41.4 -5 38 C-4.01 38 -3.02 38 -2 38 C-2 38.66 -2 39.32 -2 40 C-1.34 40 -0.68 40 0 40 C0 26.8 0 13.6 0 0 Z " fill="#3A3E45" transform="translate(372,173)"/>
<path d="M0 0 C5.94 0 11.88 0 18 0 C18 1.32 18 2.64 18 4 C12.72 3.67 7.44 3.34 2 3 C2.33 10.26 2.66 17.52 3 25 C6.63 25.33 10.26 25.66 14 26 C13.67 26.66 13.34 27.32 13 28 C10.71484375 28.4140625 10.71484375 28.4140625 7.9375 28.625 C6.308125 28.74875 4.67875 28.8725 3 29 C2.67 35.6 2.34 42.2 2 49 C1.34 49 0.68 49 0 49 C0 32.83 0 16.66 0 0 Z " fill="#262932" transform="translate(444,173)"/>
<path d="M0 0 C0.99 0 1.98 0 3 0 C3 16.17 3 32.34 3 49 C1.35 49 -0.3 49 -2 49 C-4 47 -4 47 -4.125 44.375 C-4.08375 43.59125 -4.0425 42.8075 -4 42 C-2.02 41.505 -2.02 41.505 0 41 C0 27.47 0 13.94 0 0 Z " fill="#42464C" transform="translate(706,173)"/>
<path d="M0 0 C1.65 0 3.3 0 5 0 C5 16.17 5 32.34 5 49 C4.01 49 3.02 49 2 49 C1.67 36.13 1.34 23.26 1 10 C0.01 9.67 -0.98 9.34 -2 9 C-1.34 6.03 -0.68 3.06 0 0 Z " fill="#31363E" transform="translate(660,173)"/>
<path d="M0 0 C2.475 0.495 2.475 0.495 5 1 C6.59660706 3.88909849 7 5.69058796 7 9 C6.01 8.67 5.02 8.34 4 8 C3.67 21.53 3.34 35.06 3 49 C2.01 49 1.02 49 0 49 C0 32.83 0 16.66 0 0 Z " fill="#373B42" transform="translate(682,173)"/>
<path d="M0 0 C0.99 0 1.98 0 3 0 C3 16.17 3 32.34 3 49 C1.02 48.67 -0.96 48.34 -3 48 C-2.67 45.69 -2.34 43.38 -2 41 C-1.34 41 -0.68 41 0 41 C0 27.47 0 13.94 0 0 Z " fill="#3B3E45" transform="translate(581,173)"/>
<path d="M0 0 C6.19861393 3.63107714 12.56679819 9.13220214 14.66015625 16.2421875 C14.77230469 16.82226562 14.88445312 17.40234375 15 18 C12 17 12 17 10.3125 14.625 C9 12 9 12 9 9 C8.01 9 7.02 9 6 9 C6 8.34 6 7.68 6 7 C5.4225 6.71125 4.845 6.4225 4.25 6.125 C3.5075 5.75375 2.765 5.3825 2 5 C1.319375 4.690625 0.63875 4.38125 -0.0625 4.0625 C-2.10267752 2.94369297 -3.36568665 1.63431335 -5 0 C-11.48859368 -2.16286456 -20.04796275 -2.08203655 -26.66796875 -0.26953125 C-33.19151678 3.02194927 -41.70024515 10.4004903 -45 17 C-45.66 17 -46.32 17 -47 17 C-44.30522963 7.34373952 -38.06443078 3.55765344 -29.8359375 -1.26953125 C-20.00106788 -6.33001871 -9.64536066 -4.78552563 0 0 Z " fill="#EF8D7F" transform="translate(199,125)"/>
<path d="M0 0 C2.99532098 2.46673493 4.86727628 4.45154462 5.63671875 8.328125 C5.69472656 9.20984375 5.75273438 10.0915625 5.8125 11 C5.91111328 12.33804688 5.91111328 12.33804688 6.01171875 13.703125 C6.04910156 14.37859375 6.08648438 15.0540625 6.125 15.75 C4.46885343 16.13218767 2.80042976 16.46395102 1.125 16.75 C-0.91026279 14.71473721 -0.74291601 10.85725794 -1.1796875 8.09765625 C-1.70611044 5.40017477 -1.70611044 5.40017477 -4.875 3.75 C-7.17214187 3.72360171 -7.17214187 3.72360171 -9.5625 4.125 C-10.37074219 4.23585937 -11.17898438 4.34671875 -12.01171875 4.4609375 C-12.93404297 4.60402344 -12.93404297 4.60402344 -13.875 4.75 C-13.875 3.76 -13.875 2.77 -13.875 1.75 C-15.93745319 2.81395319 -15.93745319 2.81395319 -17.875 4.75 C-18.79145897 7.92601208 -18.79145897 7.92601208 -19.125 11.4375 C-19.27453125 12.61699219 -19.4240625 13.79648438 -19.578125 15.01171875 C-19.67609375 15.91535156 -19.7740625 16.81898438 -19.875 17.75 C-20.205 17.75 -20.535 17.75 -20.875 17.75 C-21.49777751 6.90329169 -21.49777751 6.90329169 -19.1875 2.625 C-13.60849355 -1.89851874 -6.6375493 -2.885891 0 0 Z " fill="#A2A2A6" transform="translate(764.875,173.25)"/>
<path d="M0 0 C5.61 0 11.22 0 17 0 C17 0.99 17 1.98 17 3 C12.05 2.67 7.1 2.34 2 2 C2 16.19 2 30.38 2 45 C6.29 45 10.58 45 15 45 C15 45.66 15 46.32 15 47 C10.05 47 5.1 47 0 47 C0 31.49 0 15.98 0 0 Z " fill="#363A41" transform="translate(715,174)"/>
<path d="M0 0 C0.99 0 1.98 0 3 0 C3 16.17 3 32.34 3 49 C2.01 49 1.02 49 0 49 C0 32.83 0 16.66 0 0 Z " fill="#343A42" transform="translate(672,173)"/>
<path d="M0 0 C3.625 1.5 3.625 1.5 6 3 C5 5 5 5 3 6 C2.67 6.66 2.34 7.32 2 8 C1.34 7.34 0.68 6.68 0 6 C-2.36802001 5.64314014 -2.36802001 5.64314014 -5 5.6875 C-5.886875 5.67074219 -6.77375 5.65398437 -7.6875 5.63671875 C-8.450625 5.75660156 -9.21375 5.87648437 -10 6 C-12.49336211 9.74004317 -12.25481228 12.62561609 -12.1953125 16.94921875 C-12.1924826 17.72183548 -12.18965271 18.49445221 -12.18673706 19.29048157 C-12.17554878 21.75631243 -12.15044703 24.22177906 -12.125 26.6875 C-12.11496843 28.36002079 -12.10584289 30.03254728 -12.09765625 31.70507812 C-12.07561392 35.80352559 -12.04109363 39.90170106 -12 44 C-12.66 43.67 -13.32 43.34 -14 43 C-14.33 29.8 -14.66 16.6 -15 3 C-9.38073698 -0.37155781 -6.32647698 -0.78702584 0 0 Z " fill="#C8C6C9" transform="translate(398,172)"/>
<path d="M0 0 C1.65 0 3.3 0 5 0 C5 16.83 5 33.66 5 51 C3.02 51 1.04 51 -1 51 C-0.67 50.34 -0.34 49.68 0 49 C1.32 49.33 2.64 49.66 4 50 C4 33.83 4 17.66 4 1 C3.01 1 2.02 1 1 1 C1 14.53 1 28.06 1 42 C0.34 42 -0.32 42 -1 42 C-1.495 44.475 -1.495 44.475 -2 47 C-3.5625 45.75 -3.5625 45.75 -5 44 C-4.6875 41.8125 -4.6875 41.8125 -4 40 C-3.67 40.66 -3.34 41.32 -3 42 C-3.04125 40.7625 -3.0825 39.525 -3.125 38.25 C-3.20565915 35.8302256 -3.24065968 34.41460183 -2.01367188 32.30078125 C-0.63324757 29.16756384 -0.67281381 26.46400981 -0.5859375 23.046875 C-0.56657135 22.38665344 -0.5472052 21.72643188 -0.5272522 21.04620361 C-0.46770651 18.94759847 -0.42117278 16.84893772 -0.375 14.75 C-0.33679706 13.3228934 -0.29774398 11.89580928 -0.2578125 10.46875 C-0.1620267 6.97937309 -0.07790358 3.48982714 0 0 Z M-1 36 C0 38 0 38 0 38 Z " fill="#BBBABE" transform="translate(580,172)"/>
<path d="M0 0 C2.83665756 3.4457558 4.73456029 7.23682078 6.625 11.25 C6.93695313 11.88035156 7.24890625 12.51070312 7.5703125 13.16015625 C9.76546199 17.80592522 10.57889738 21.87848169 11 27 C9.68 27.33 8.36 27.66 7 28 C5.82887054 25.37690901 4.66294036 22.75171858 3.5 20.125 C3.16613281 19.37863281 2.83226562 18.63226563 2.48828125 17.86328125 C2.17246094 17.14785156 1.85664063 16.43242187 1.53125 15.6953125 C1.23798828 15.03547363 0.94472656 14.37563477 0.64257812 13.69580078 C0 12 0 12 0 10 C-0.66 9.67 -1.32 9.34 -2 9 C-2.625 5.9375 -2.625 5.9375 -3 3 C-1.68 3.99 -0.36 4.98 1 6 C0.67 4.02 0.34 2.04 0 0 Z " fill="#999A9E" transform="translate(357,182)"/>
<path d="M0 0 C0.99 0 1.98 0 3 0 C3.0247366 5.33853824 3.0428774 10.67704303 3.05493164 16.015625 C3.05995741 17.83138612 3.06677903 19.6471432 3.07543945 21.46289062 C3.08758189 24.0742289 3.09324591 26.68551362 3.09765625 29.296875 C3.10281754 30.10743347 3.10797882 30.91799194 3.11329651 31.75311279 C3.11365296 35.3420417 2.97045947 38.54740786 2 42 C1.01 42 0.02 42 -1 42 C-0.67 28.14 -0.34 14.28 0 0 Z " fill="#393D44" transform="translate(434,173)"/>
<path d="M0 0 C5.28 0 10.56 0 16 0 C16 0.33 16 0.66 16 1 C11.05 1 6.1 1 1 1 C1 17.17 1 33.34 1 50 C1.66 50 2.32 50 3 50 C3 43.4 3 36.8 3 30 C7.29 30 11.58 30 16 30 C19.08035714 38.03571429 19.08035714 38.03571429 20 42 C16.1334716 38.777893 15.11940982 35.85077588 14 31 C10.7 31 7.4 31 4 31 C4 37.6 4 44.2 4 51 C2.68 51 1.36 51 0 51 C0 34.17 0 17.34 0 0 Z " fill="#B1B2B6" transform="translate(443,172)"/>
<path d="M0 0 C1.2065625 0.0309375 1.2065625 0.0309375 2.4375 0.0625 C2.54707031 0.67738281 2.65664063 1.29226562 2.76953125 1.92578125 C2.92808594 2.73402344 3.08664062 3.54226562 3.25 4.375 C3.40082031 5.17550781 3.55164063 5.97601563 3.70703125 6.80078125 C4.54964828 9.40973985 5.20964523 10.47117516 7.4375 12.0625 C9.93953648 12.63821496 9.93953648 12.63821496 12.625 12.75 C13.52605469 12.81574219 14.42710937 12.88148438 15.35546875 12.94921875 C16.04253906 12.98660156 16.72960937 13.02398437 17.4375 13.0625 C17.4375 13.7225 17.4375 14.3825 17.4375 15.0625 C12.54631495 16.36681601 7.4508768 16.77506117 2.4375 16.0625 C-1.89520157 12.81297382 -2.42301474 8.25683631 -3.36328125 3.171875 C-3.42902344 2.47578125 -3.49476563 1.7796875 -3.5625 1.0625 C-2.5625 0.0625 -2.5625 0.0625 0 0 Z " fill="#5D6066" transform="translate(487.5625,205.9375)"/>
<path d="M0 0 C0.99 0 1.98 0 3 0 C3.50403768 1.29009643 4.00309926 2.58213789 4.5 3.875 C4.7784375 4.59429687 5.056875 5.31359375 5.34375 6.0546875 C6 8 6 8 6 10 C5.34 10 4.68 10 4 10 C4 9.34 4 8.68 4 8 C3.34 8 2.68 8 2 8 C2 21.53 2 35.06 2 49 C1.34 49 0.68 49 0 49 C0 32.83 0 16.66 0 0 Z " fill="#2C3038" transform="translate(632,173)"/>
<path d="M0 0 C0.66 0 1.32 0 2 0 C5.16073153 3.41939419 6.97724234 6.81968261 8.6875 11.125 C9.10386719 12.15882813 9.52023437 13.19265625 9.94921875 14.2578125 C10.67647735 16.15571413 11.35727645 18.07182934 12 20 C11.01 19.67 10.02 19.34 9 19 C9 20.65 9 22.3 9 24 C10.32 24 11.64 24 13 24 C13.66 22.68 14.32 21.36 15 20 C14.67 21.65 14.34 23.3 14 25 C12.35 25.33 10.7 25.66 9 26 C6.58982092 21.35817362 4.34727483 16.66706385 2.25 11.875 C1.60804688 10.41707031 1.60804688 10.41707031 0.953125 8.9296875 C-0.06913427 5.78749712 -0.17532179 3.28241353 0 0 Z " fill="#ADADB0" transform="translate(637,184)"/>
<path d="M0 0 C9.66666667 -0.56862745 9.66666667 -0.56862745 14 3 C17.00527454 6.24424818 17.3436763 8.3770635 17.1875 12.75 C17.16042969 13.73484375 17.13335937 14.7196875 17.10546875 15.734375 C17.07066406 16.48203125 17.03585937 17.2296875 17 18 C15.35 18 13.7 18 12 18 C11.96261719 17.38511719 11.92523438 16.77023438 11.88671875 16.13671875 C11.78810547 14.92435547 11.78810547 14.92435547 11.6875 13.6875 C11.62949219 12.88699219 11.57148438 12.08648437 11.51171875 11.26171875 C10.90573941 8.58338258 10.17086449 7.64490682 8 6 C5.01349195 5.3355782 5.01349195 5.3355782 2 5 C1.01 4.67 0.02 4.34 -1 4 C0 3 0 3 3.4375 2.875 C7 3 7 3 9 4 C8.67 3.34 8.34 2.68 8 2 C6.10466658 1.53476937 6.10466658 1.53476937 3.9375 1.375 C2.638125 1.25125 1.33875 1.1275 0 1 C0 0.67 0 0.34 0 0 Z " fill="#9B9CA0" transform="translate(494,172)"/>
<path d="M0 0 C0.99 0 1.98 0 3 0 C4.2187375 3.79537631 4.11338128 7.42791621 4.09765625 11.390625 C4.0962413 12.09523865 4.09482635 12.79985229 4.09336853 13.52581787 C4.08778933 15.76725584 4.07524073 18.00859243 4.0625 20.25 C4.05748231 21.77343605 4.05291987 23.29687368 4.04882812 24.8203125 C4.03782674 28.54690772 4.02057646 32.27344396 4 36 C2.35 36.66 0.7 37.32 -1 38 C-1 35.31719782 -0.67555322 33.50656616 -0.01171875 30.94921875 C1.15496328 25.8613318 1.26230232 21.01322979 1.1875 15.8125 C1.18685547 14.94947266 1.18621094 14.08644531 1.18554688 13.19726562 C1.15452041 8.69153386 0.90688483 4.43285305 0 0 Z " fill="#343940" transform="translate(734,180)"/>
<path d="M0 0 C4.62568658 4.04261684 5.61409896 9.80712828 6.328125 15.71484375 C6.70247354 25.03344838 3.77699164 33.68247725 -2 41 C-2.99 41.495 -2.99 41.495 -4 42 C-3.01 39.03 -2.02 36.06 -1 33 C-0.34 33 0.32 33 1 33 C1 31.35 1 29.7 1 28 C1.66 28 2.32 28 3 28 C3 21.4 3 14.8 3 8 C2.34 8 1.68 8 1 8 C0.67 5.36 0.34 2.72 0 0 Z " fill="#EDA49A" transform="translate(174,206)"/>
<path d="M0 0 C0 0.33 0 0.66 0 1 C-3.67064246 1.26858359 -5.80425159 1.09173449 -9.17578125 -0.48828125 C-13.34437973 -2.34852452 -17.11269223 -2.44675048 -21.625 -2.375 C-22.36234375 -2.38660156 -23.0996875 -2.39820312 -23.859375 -2.41015625 C-28.54333737 -2.38497366 -31.1122771 -1.46904507 -35 1 C-37.3125 0.6875 -37.3125 0.6875 -39 0 C-37.44148245 -0.82011312 -35.87798284 -1.63076213 -34.3125 -2.4375 C-33.44238281 -2.88996094 -32.57226562 -3.34242187 -31.67578125 -3.80859375 C-21.02954493 -8.54888875 -9.76004255 -5.30054415 0 0 Z " fill="#EB7666" transform="translate(133,94)"/>
<path d="M0 0 C0 0.66 0 1.32 0 2 C0.7425 1.95875 1.485 1.9175 2.25 1.875 C5.13532225 2.00615101 6.62533337 2.38861907 9 4 C9.495 5.485 9.495 5.485 10 7 C8.45797384 6.54287762 6.91639786 6.08423653 5.375 5.625 C4.51648438 5.36976562 3.65796875 5.11453125 2.7734375 4.8515625 C0 4 0 4 -2.7109375 2.91015625 C-7.18535221 1.67198686 -11.38188665 1.74798224 -16 1.8125 C-16.8765625 1.81314453 -17.753125 1.81378906 -18.65625 1.81445312 C-23.21081371 1.8453199 -27.51982683 2.07891177 -32 3 C-31.67 2.01 -31.34 1.02 -31 0 C-20.71089083 -1.64625747 -10.30343858 -1.42116394 0 0 Z " fill="#ED9B8F" transform="translate(198,113)"/>
<path d="M0 0 C1.258125 0.12375 2.51625 0.2475 3.8125 0.375 C4.87404297 0.47941406 4.87404297 0.47941406 5.95703125 0.5859375 C8 1 8 1 11 3 C13.1270431 3.27441372 13.1270431 3.27441372 15.44921875 3.1953125 C16.29677734 3.18886719 17.14433594 3.18242187 18.01757812 3.17578125 C18.89865234 3.15902344 19.77972656 3.14226562 20.6875 3.125 C21.58017578 3.11597656 22.47285156 3.10695312 23.39257812 3.09765625 C25.59532314 3.07409748 27.79752588 3.04120329 30 3 C30 2.34 30 1.68 30 1 C32.64 0.67 35.28 0.34 38 0 C35.00143274 3.7041125 30.63948753 5.57279033 26.01342773 6.3215332 C23.91603548 6.47370834 21.85277171 6.51722211 19.75 6.5 C19.01144775 6.49935547 18.27289551 6.49871094 17.51196289 6.49804688 C10.90534262 6.31966453 5.66566359 4.42631923 0 1 C0 0.67 0 0.34 0 0 Z " fill="#E78375" transform="translate(163,184)"/>
<path d="M0 0 C5.28 0 10.56 0 16 0 C16.04125 2.35125 16.0825 4.7025 16.125 7.125 C16.14320801 7.85348145 16.16141602 8.58196289 16.18017578 9.33251953 C16.21622763 13.62036412 15.57359876 17.02263619 14 21 C13.67 21 13.34 21 13 21 C13.33 14.4 13.66 7.8 14 1 C9.71 1 5.42 1 1 1 C1 1.66 1 2.32 1 3 C4.63 3 8.26 3 12 3 C12 6.96 12 10.92 12 15 C11.67 15 11.34 15 11 15 C11 11.37 11 7.74 11 4 C7.7 4.33 4.4 4.66 1 5 C0.67 3.35 0.34 1.7 0 0 Z " fill="#A0A1A5" transform="translate(600,197)"/>
<path d="M0 0 C1.66611905 -0.042721 3.33382885 -0.04063832 5 0 C6.86127406 1.86127406 6.46118139 4.49929136 6.71875 6.9921875 C6.9662595 9.20138785 6.9662595 9.20138785 8 12 C8.66 12.33 9.32 12.66 10 13 C6 13 6 13 4.25 11.5 C3.8375 11.005 3.425 10.51 3 10 C4.98 12.97 4.98 12.97 7 16 C3.41374759 14.58814905 2.21602361 13.19897315 0.6875 9.6875 C-0.79700615 6.10620113 -1.45424656 3.75680362 0 0 Z " fill="#A6A7AA" transform="translate(744,206)"/>
<path d="M0 0 C0.99 0 1.98 0 3 0 C2.84152588 0.50305664 2.68305176 1.00611328 2.51977539 1.52441406 C1.81633378 4.87476536 1.7648616 8.19970003 1.68359375 11.609375 C1.66281265 12.33618469 1.64203156 13.06299438 1.62062073 13.81182861 C1.55544488 16.12445991 1.4963896 18.43720093 1.4375 20.75 C1.39428434 22.32162575 1.35066908 23.89324056 1.30664062 25.46484375 C1.19979644 29.30978453 1.09843976 33.15483524 1 37 C0.34 37 -0.32 37 -1 37 C-1.0246501 31.89136104 -1.04283607 26.78275641 -1.05493164 21.67407227 C-1.05997204 19.93480832 -1.0668043 18.19554864 -1.07543945 16.45629883 C-1.08751792 13.96174063 -1.09323108 11.46723827 -1.09765625 8.97265625 C-1.10281754 8.19036148 -1.10797882 7.40806671 -1.11329651 6.60206604 C-1.11349226 4.73432886 -1.06199694 2.86670796 -1 1 C-0.67 0.67 -0.34 0.34 0 0 Z " fill="#292D34" transform="translate(591,178)"/>
<path d="M0 0 C0.495 0.99 0.495 0.99 1 2 C-1.64 1.67 -4.28 1.34 -7 1 C-7 0.34 -7 -0.32 -7 -1 C-15.72542301 -1.12852505 -24.31008699 -0.79645684 -33 0 C-25.04874377 -7.95125623 -8.85052092 -4.62794414 0 0 Z " fill="#E97261" transform="translate(163,194)"/>
<path d="M0 0 C0.66 0 1.32 0 2 0 C2 0.66 2 1.32 2 2 C2.99 2 3.98 2 5 2 C7.4021604 6.8043208 7.61122229 11.73103895 8 17 C7.34 17.33 6.68 17.66 6 18 C6 17.01 6 16.02 6 15 C5.34 15 4.68 15 4 15 C0.95842058 9.77228537 -0.50610724 6.07328688 0 0 Z " fill="#9F9FA3" transform="translate(570,197)"/>
<path d="M0 0 C0.33 0 0.66 0 1 0 C1.33 13.53 1.66 27.06 2 41 C6.29 41 10.58 41 15 41 C15 41.66 15 42.32 15 43 C10.05 43 5.1 43 0 43 C0 28.81 0 14.62 0 0 Z " fill="#2A2E35" transform="translate(715,178)"/>
<path d="M0 0 C0.33 0 0.66 0 1 0 C1.33 10.89 1.66 21.78 2 33 C2.66 33.33 3.32 33.66 4 34 C4 34.66 4 35.32 4 36 C2.68 35.67 1.36 35.34 0 35 C-0.81447532 30.72178032 -1.12848798 26.67685305 -1.1328125 22.32421875 C-1.13410156 21.08478516 -1.13539063 19.84535156 -1.13671875 18.56835938 C-1.13285156 17.28767578 -1.12898438 16.00699219 -1.125 14.6875 C-1.12886719 13.38748047 -1.13273437 12.08746094 -1.13671875 10.74804688 C-1.13542969 9.51505859 -1.13414062 8.28207031 -1.1328125 7.01171875 C-1.13168457 5.88209717 -1.13055664 4.75247559 -1.12939453 3.58862305 C-1 1 -1 1 0 0 Z " fill="#2D3138" transform="translate(382,183)"/>
<path d="M0 0 C-2.81814566 1.40907283 -4.17277204 0.50872691 -7.125 -0.4375 C-8.03507812 -0.72496094 -8.94515625 -1.01242188 -9.8828125 -1.30859375 C-10.58148438 -1.53675781 -11.28015625 -1.76492187 -12 -2 C-12 -2.66 -12 -3.32 -12 -4 C-14.58366245 -3.85879984 -17.16682885 -3.71221667 -19.75 -3.5625 C-20.84441406 -3.50352539 -20.84441406 -3.50352539 -21.9609375 -3.44335938 C-25.4272973 -3.23852902 -28.65333026 -2.9147998 -32 -2 C-32 -1.34 -32 -0.68 -32 0 C-33.65 0 -35.3 0 -37 0 C-28.19408964 -10.19631726 -9.83237983 -6.88266588 0 0 Z " fill="#F5B1A8" transform="translate(239,59)"/>
<path d="M0 0 C1.65 0 3.3 0 5 0 C5 16.17 5 32.34 5 49 C4.67 49 4.34 49 4 49 C3.67 34.15 3.34 19.3 3 4 C1.68 4.33 0.36 4.66 -1 5 C-0.67 3.35 -0.34 1.7 0 0 Z " fill="#64676C" transform="translate(660,173)"/>
<path d="M0 0 C-1.99083966 4.89791803 -5.9091317 7.91163984 -9.6875 11.46484375 C-11.97912801 13.97711838 -12.78867346 15.89056802 -14 19 C-14.99 19.33 -15.98 19.66 -17 20 C-15.7628511 11.87016436 -9.99595498 6.31794096 -3.8359375 1.203125 C-2 0 -2 0 0 0 Z " fill="#ED6A57" transform="translate(130,194)"/>
<path d="M0 0 C4.29 0 8.58 0 13 0 C13.14285714 13.85714286 13.14285714 13.85714286 12 20 C11.01 20 10.02 20 9 20 C9.66 14.06 10.32 8.12 11 2 C7.37 2 3.74 2 0 2 C0 1.34 0 0.68 0 0 Z " fill="#353A41" transform="translate(601,198)"/>
<path d="M0 0 C0.33 0 0.66 0 1 0 C0.83886719 0.99773437 0.67773438 1.99546875 0.51171875 3.0234375 C-0.03916606 6.89815652 -0.1675605 10.70888279 -0.1875 14.625 C-0.20167969 15.89601563 -0.21585937 17.16703125 -0.23046875 18.4765625 C-0.01064495 21.83725856 0.63657934 23.96839405 2 27 C2.125 29.8125 2.125 29.8125 2 32 C-1.76917329 28.61197906 -3.03846676 24.91121594 -4 20 C-4.18276785 12.93297648 -2.56674792 6.53794282 0 0 Z " fill="#E7604D" transform="translate(82,109)"/>
<path d="M0 0 C4.57349095 4.12510949 5.78319015 9.25045686 6.2578125 15.26953125 C6.34963793 21.00862052 6.03758924 25.58537041 4 31 C3.67 31 3.34 31 3 31 C2.85284308 23.6094524 3.29223008 16.35575165 4 9 C3.01 8.67 2.02 8.34 1 8 C0.67 5.36 0.34 2.72 0 0 Z " fill="#EB8171" transform="translate(248,69)"/>
<path d="M0 0 C1.09054687 0.02320313 2.18109375 0.04640625 3.3046875 0.0703125 C4.40039062 0.08835938 5.49609375 0.10640625 6.625 0.125 C7.46804688 0.14820313 8.31109375 0.17140625 9.1796875 0.1953125 C9.5096875 1.1853125 9.8396875 2.1753125 10.1796875 3.1953125 C9.25736328 3.12570313 9.25736328 3.12570313 8.31640625 3.0546875 C3.45092221 2.70891367 3.45092221 2.70891367 -0.8203125 4.6328125 C-2.29171216 8.40327413 -2.57130703 12.17687945 -2.8203125 16.1953125 C-3.1503125 16.1953125 -3.4803125 16.1953125 -3.8203125 16.1953125 C-3.8203125 12.5653125 -3.8203125 8.9353125 -3.8203125 5.1953125 C-4.8103125 5.5253125 -5.8003125 5.8553125 -6.8203125 6.1953125 C-4.06038884 0.28119036 -4.06038884 0.28119036 0 0 Z " fill="#99999D" transform="translate(492.8203125,172.8046875)"/>
<path d="M0 0 C0.76828125 -0.01160156 1.5365625 -0.02320313 2.328125 -0.03515625 C7.60532639 -0.00823175 11.28499487 1.00495753 16 3.375 C16 3.705 16 4.035 16 4.375 C7.63971568 3.51893603 7.63971568 3.51893603 4.5 2.8125 C-2.00901373 1.6734226 -7.7815218 2.25807125 -14 4.375 C-14 5.035 -14 5.695 -14 6.375 C-15.65 6.375 -17.3 6.375 -19 6.375 C-14.15140225 0.38555572 -7.12837757 -0.10764329 0 0 Z " fill="#EE9387" transform="translate(76,156.625)"/>
<path d="M0 0 C-1.65 0.33 -3.3 0.66 -5 1 C-5 1.99 -5 2.98 -5 4 C-25.72340426 4.57446809 -25.72340426 4.57446809 -34 1 C-31 0 -31 0 -28 1 C-24.92071224 1.22664228 -21.83678776 1.18515798 -18.75 1.1875 C-17.49896484 1.20586914 -17.49896484 1.20586914 -16.22265625 1.22460938 C-12.28348787 1.23388528 -8.79608087 1.09027918 -5.015625 -0.07421875 C-2 -1 -2 -1 0 0 Z " fill="#EC9589" transform="translate(167,95)"/>
<path d="M0 0 C0.66 0 1.32 0 2 0 C2.01458252 1.16571533 2.02916504 2.33143066 2.04418945 3.5324707 C2.10213117 7.85456122 2.17936394 12.17612847 2.26245117 16.49780273 C2.29572002 18.36881014 2.32374585 20.23991838 2.34643555 22.11108398 C2.37994588 24.79975383 2.43225865 27.48749798 2.48828125 30.17578125 C2.49467117 31.01337479 2.5010611 31.85096832 2.50764465 32.71394348 C2.47415769 37.08194368 2.47415769 37.08194368 4.52702332 40.74504089 C5.25614677 41.36624565 5.25614677 41.36624565 6 42 C4.35 41.34 2.7 40.68 1 40 C0.67 29.44 0.34 18.88 0 8 C-0.33 8 -0.66 8 -1 8 C-1.04241723 5.66705225 -1.04092937 3.33297433 -1 1 C-0.67 0.67 -0.34 0.34 0 0 Z " fill="#6B6F74" transform="translate(382,176)"/>
<path d="M0 0 C2.98093122 2.5550839 4.52359755 5.38281401 6 9 C5.6875 11.375 5.6875 11.375 5 13 C1.31148165 12.00310315 0.19425193 11.31080309 -1.875 8 C-2.24625 7.01 -2.6175 6.02 -3 5 C-2 3 -2 3 0 2 C0 1.34 0 0.68 0 0 Z " fill="#838489" transform="translate(466,211)"/>
<path d="M0 0 C0.33 0 0.66 0 1 0 C1 1.98 1 3.96 1 6 C1.66 6 2.32 6 3 6 C2 9 2 9 0.1796875 9.984375 C-5.05270261 11.72259273 -8.61182374 12.26106253 -14 11 C-14 10.67 -14 10.34 -14 10 C-10.7 10 -7.4 10 -4 10 C-4 9.34 -4 8.68 -4 8 C-6.64 8 -9.28 8 -12 8 C-12 7.67 -12 7.34 -12 7 C-6.555 6.01 -6.555 6.01 -1 5 C-0.67 3.35 -0.34 1.7 0 0 Z " fill="#A5A7AA" transform="translate(610,212)"/>
<path d="M0 0 C4.75 0.75 4.75 0.75 7 3 C7.1953125 5.8203125 7.1953125 5.8203125 7.125 9.125 C7.10695313 10.22070312 7.08890625 11.31640625 7.0703125 12.4453125 C7.04710937 13.28835937 7.02390625 14.13140625 7 15 C6.34 15 5.68 15 5 15 C5 12.69 5 10.38 5 8 C4.01 7.67 3.02 7.34 2 7 C0 4 0 4 0 0 Z " fill="#74767B" transform="translate(762,199)"/>
<path d="M0 0 C7.66884984 0.62859425 7.66884984 0.62859425 9.34960938 2.51367188 C11.49231202 4.44337213 12.60299082 4.35027535 15.44921875 4.29296875 C16.29677734 4.28330078 17.14433594 4.27363281 18.01757812 4.26367188 C18.89865234 4.23853516 19.77972656 4.21339844 20.6875 4.1875 C21.58017578 4.17396484 22.47285156 4.16042969 23.39257812 4.14648438 C25.59566166 4.11114079 27.79752582 4.06180493 30 4 C30 3.34 30 2.68 30 2 C31.98 2 33.96 2 36 2 C35.34 2.33 34.68 2.66 34 3 C34 3.66 34 4.32 34 5 C28.51730931 6.15664737 23.19660726 6.11416255 17.625 6.0625 C16.69816406 6.05798828 15.77132812 6.05347656 14.81640625 6.04882812 C12.54420291 6.03711574 10.27213612 6.02071372 8 6 C8 5.34 8 4.68 8 4 C7.4225 3.896875 6.845 3.79375 6.25 3.6875 C3.67950842 2.90207202 2.06342716 1.69495803 0 0 Z " fill="#F8AFA4" transform="translate(130,82)"/>
<path d="M0 0 C2 0 2 0 4 1.9375 C6.78779754 6.20631499 8.57252748 11.14714942 7.54296875 16.27734375 C7.36378906 16.84582031 7.18460938 17.41429687 7 18 C4.125 11.375 4.125 11.375 3 8 C2.34 8 1.68 8 1 8 C-0.35439668 5.29120665 -0.06501451 2.99066732 0 0 Z " fill="#808286" transform="translate(637,184)"/>
<path d="M0 0 C1.32 0 2.64 0 4 0 C5.25664978 2.90600261 6 4.79604584 6 8 C5.01 7.67 4.02 7.34 3 7 C2.67 10.3 2.34 13.6 2 17 C1.34 17 0.68 17 0 17 C0 11.39 0 5.78 0 0 Z " fill="#2B2F36" transform="translate(683,174)"/>
<path d="M0 0 C6.49614132 -0.05064837 12.99223185 -0.0857117 19.48852539 -0.10986328 C21.69915673 -0.11993006 23.90977472 -0.13358448 26.12036133 -0.15087891 C29.29511811 -0.17509738 32.46969906 -0.18647627 35.64453125 -0.1953125 C36.63524124 -0.20563507 37.62595123 -0.21595764 38.64668274 -0.22659302 C39.56741074 -0.22674408 40.48813873 -0.22689514 41.43676758 -0.22705078 C42.65255241 -0.23371262 42.65255241 -0.23371262 43.89289856 -0.24050903 C46 0 46 0 49 2 C47.0085944 2.38133299 45.00720923 2.71325582 43 3 C42.505 2.505 42.505 2.505 42 2 C38.89914779 1.83958807 35.81812421 1.74036598 32.71484375 1.68359375 C31.31861534 1.6524221 31.31861534 1.6524221 29.8941803 1.62062073 C26.90869818 1.55502069 23.92312516 1.49619198 20.9375 1.4375 C18.91861024 1.3943247 16.8997298 1.35071075 14.88085938 1.30664062 C9.92066703 1.19932871 4.96038291 1.09809112 0 1 C0 0.67 0 0.34 0 0 Z " fill="#5C5E64" transform="translate(641,60)"/>
<path d="M0 0 C7.02502943 1.97193809 10.88504978 4.94726159 15 11 C16.4375 14.5 16.4375 14.5 17 17 C14 16 14 16 12.3125 13.625 C11 11 11 11 11 8 C10.01 8 9.02 8 8 8 C8 7.34 8 6.68 8 6 C7.4225 5.71125 6.845 5.4225 6.25 5.125 C4.16666667 4.08333333 2.08333333 3.04166667 0 2 C0 1.34 0 0.68 0 0 Z " fill="#EA7A6A" transform="translate(197,126)"/>
<path d="M0 0 C0.33 0 0.66 0 1 0 C1 5.28 1 10.56 1 16 C-0.65 16 -2.3 16 -4 16 C-3.67 13.69 -3.34 11.38 -3 9 C-2.34 9 -1.68 9 -1 9 C-1.020625 7.700625 -1.04125 6.40125 -1.0625 5.0625 C-1.08399454 3.70834367 -1.07148199 2.35243917 -1 1 C-0.67 0.67 -0.34 0.34 0 0 Z " fill="#3B4047" transform="translate(582,205)"/>
<path d="M0 0 C1.1240625 -0.01417969 2.248125 -0.02835938 3.40625 -0.04296875 C6.43445104 0.18261693 7.89707447 0.7674986 10.5 2.1875 C9.92032471 2.20208252 9.34064941 2.21666504 8.7434082 2.23168945 C6.09912447 2.30648528 3.45605998 2.40303898 0.8125 2.5 C-0.09951172 2.52255859 -1.01152344 2.54511719 -1.95117188 2.56835938 C-7.10282594 2.77442554 -10.12442968 3.28939498 -14.5 6.1875 C-16.8125 5.875 -16.8125 5.875 -18.5 5.1875 C-17.25264433 4.5365741 -16.00198168 3.89198331 -14.75 3.25 C-14.05390625 2.89035156 -13.3578125 2.53070312 -12.640625 2.16015625 C-8.39521535 0.23112887 -4.65571715 0.02669563 0 0 Z " fill="#EB8A7B" transform="translate(149.5,19.8125)"/>
<path d="M0 0 C0.33 0 0.66 0 1 0 C1 2.64 1 5.28 1 8 C-4.76173683 11.06475363 -8.62740199 11.19937786 -15 10 C-15 9.67 -15 9.34 -15 9 C-8.565 8.505 -8.565 8.505 -2 8 C-2 7.34 -2 6.68 -2 6 C-3.32 5.67 -4.64 5.34 -6 5 C-2.25 2 -2.25 2 0 2 C0 1.34 0 0.68 0 0 Z " fill="#949599" transform="translate(507,213)"/>
<path d="M0 0 C0.33 0.66 0.66 1.32 1 2 C1.99 2 2.98 2 4 2 C5.80230168 5.82989106 6.19622241 8.78121808 6 13 C5.01 12.67 4.02 12.34 3 12 C3 11.34 3 10.68 3 10 C2.34 10 1.68 10 1 10 C0.63883954 8.5225254 0.28624952 7.04295325 -0.0625 5.5625 C-0.25972656 4.73878906 -0.45695313 3.91507813 -0.66015625 3.06640625 C-0.82837891 2.04353516 -0.82837891 2.04353516 -1 1 C-0.67 0.67 -0.34 0.34 0 0 Z " fill="#6B6E73" transform="translate(692,189)"/>
<path d="M0 0 C0.99 0 1.98 0 3 0 C3.50403768 1.29009643 4.00309926 2.58213789 4.5 3.875 C4.7784375 4.59429687 5.056875 5.31359375 5.34375 6.0546875 C6 8 6 8 6 10 C5.34 10 4.68 10 4 10 C4 9.34 4 8.68 4 8 C3.34 8 2.68 8 2 8 C2 9.65 2 11.3 2 13 C1.01 13.495 1.01 13.495 0 14 C0 9.38 0 4.76 0 0 Z " fill="#30353C" transform="translate(632,173)"/>
<path d="M0 0 C0.33 0 0.66 0 1 0 C1.01981934 0.55985596 1.03963867 1.11971191 1.06005859 1.6965332 C1.15537783 4.23565854 1.26502753 6.77396888 1.375 9.3125 C1.4059375 10.19357422 1.436875 11.07464844 1.46875 11.98242188 C1.50742188 12.82998047 1.54609375 13.67753906 1.5859375 14.55078125 C1.6173584 15.33106689 1.6487793 16.11135254 1.68115234 16.9152832 C1.89587889 19.30155768 1.89587889 19.30155768 4 22 C4.125 24.6875 4.125 24.6875 4 27 C-1.80213752 20.4066619 -1.50527217 12.33111551 -1 4 C-0.70914959 2.65675954 -0.39290285 1.31701034 0 0 Z " fill="#EA9084" transform="translate(112,214)"/>
<path d="M0 0 C1.2065625 0.0309375 1.2065625 0.0309375 2.4375 0.0625 C2.54707031 0.67738281 2.65664063 1.29226562 2.76953125 1.92578125 C2.92808594 2.73402344 3.08664062 3.54226562 3.25 4.375 C3.40082031 5.17550781 3.55164063 5.97601563 3.70703125 6.80078125 C4.53204262 9.35522823 5.32214949 10.4353073 7.4375 12.0625 C10.54589021 12.7894226 10.54589021 12.7894226 13.4375 13.0625 C13.4375 13.3925 13.4375 13.7225 13.4375 14.0625 C5.05040323 14.22379032 5.05040323 14.22379032 2.4375 13.0625 C0.74198929 11.04403487 0.40778488 9.63809282 0.54296875 7.01953125 C0.78637779 5.02639927 1.1073967 3.04311982 1.4375 1.0625 C0.4475 1.0625 -0.5425 1.0625 -1.5625 1.0625 C-1.5625 3.7025 -1.5625 6.3425 -1.5625 9.0625 C-1.8925 9.0625 -2.2225 9.0625 -2.5625 9.0625 C-3.44140625 2.91015625 -3.44140625 2.91015625 -3.5625 1.0625 C-2.5625 0.0625 -2.5625 0.0625 0 0 Z " fill="#A1A2A6" transform="translate(487.5625,205.9375)"/>
<path d="M0 0 C0.33 0.66 0.66 1.32 1 2 C-1.64 2 -4.28 2 -7 2 C-7 2.66 -7 3.32 -7 4 C-7.99 4.33 -8.98 4.66 -10 5 C-10.66 5.66 -11.32 6.32 -12 7 C-12 6.34 -12 5.68 -12 5 C-13.32 5.33 -14.64 5.66 -16 6 C-15.375 3.5625 -15.375 3.5625 -14 1 C-9.4686718 -0.40255397 -4.70810451 -0.08117422 0 0 Z " fill="#3C4047" transform="translate(606,173)"/>
<path d="M0 0 C2.37160148 2.37160148 2.31983352 3.00621122 2.375 6.25 C2.29801482 11.01538294 0.98554417 13.36136804 -2 17 C-2.66 16.67 -3.32 16.34 -4 16 C-3.01 14.35 -2.02 12.7 -1 11 C-2.98 11.99 -2.98 11.99 -5 13 C-4.34 9.7 -3.68 6.4 -3 3 C-2.67 3 -2.34 3 -2 3 C-2 5.31 -2 7.62 -2 10 C-1.34 10 -0.68 10 0 10 C0 6.7 0 3.4 0 0 Z " fill="#A7A8AB" transform="translate(769,204)"/>
<path d="M0 0 C0.33 0 0.66 0 1 0 C0.98839844 1.31613281 0.97679687 2.63226563 0.96484375 3.98828125 C0.87705658 17.52142324 0.87705658 17.52142324 2 31 C1.69320313 30.38511719 1.38640625 29.77023438 1.0703125 29.13671875 C0.34632556 27.69138715 -0.38568728 26.25005251 -1.125 24.8125 C-3.23033876 18.04533969 -3.16929103 6.33858205 0 0 Z " fill="#C0BFC2" transform="translate(375,91)"/>
<path d="M0 0 C1.65 0 3.3 0 5 0 C-0.97211459 6.66120474 -8.3299533 8.3226526 -17 9 C-19.00955672 8.7301984 -21.01503153 8.4135351 -23 8 C-23 7.67 -23 7.34 -23 7 C-21.38931641 6.83564453 -21.38931641 6.83564453 -19.74609375 6.66796875 C-18.3098322 6.50838413 -16.87363767 6.34819558 -15.4375 6.1875 C-14.73302734 6.11724609 -14.02855469 6.04699219 -13.30273438 5.97460938 C-8.36812035 5.40610545 -4.48151433 4.14947796 0 2 C0 1.34 0 0.68 0 0 Z " fill="#F1A99F" transform="translate(129,149)"/>
<path d="M0 0 C0.33 0.66 0.66 1.32 1 2 C1.66 2 2.32 2 3 2 C3.86625 3.60875 3.86625 3.60875 4.75 5.25 C6.11694442 7.6714444 7.25287045 9.25287045 9.25 11.25 C9.8275 11.8275 10.405 12.405 11 13 C11 13.99 11 14.98 11 16 C5.30135244 13.59472668 2.13865118 8.48432985 -0.375 3 C-0.58125 2.34 -0.7875 1.68 -1 1 C-0.67 0.67 -0.34 0.34 0 0 Z " fill="#EF8C7D" transform="translate(117,64)"/>
<path d="M0 0 C0.9796875 -0.01675781 1.959375 -0.03351563 2.96875 -0.05078125 C4.22171875 0.12904297 4.22171875 0.12904297 5.5 0.3125 C6.16 1.3025 6.82 2.2925 7.5 3.3125 C6.84 3.3125 6.18 3.3125 5.5 3.3125 C4.51 4.7975 4.51 4.7975 3.5 6.3125 C2.51 5.6525 1.52 4.9925 0.5 4.3125 C-1.54584079 3.65091957 -1.54584079 3.65091957 -3.6875 3.1875 C-4.945625 2.89875 -6.20375 2.61 -7.5 2.3125 C-4.88826365 -0.29923635 -3.62801112 0.0143211 0 0 Z " fill="#97989C" transform="translate(759.5,172.6875)"/>
<path d="M0 0 C4.61371276 3.70361052 4.37692061 9.46929533 5 15 C5.34109895 19.38555792 5.53323818 22.20014273 3 26 C3 20.06 3 14.12 3 8 C2.34 8 1.68 8 1 8 C0.67 5.36 0.34 2.72 0 0 Z " fill="#E75F4C" transform="translate(174,206)"/>
<path d="M0 0 C0.66 0.33 1.32 0.66 2 1 C-5.36363636 12.45454545 -5.36363636 12.45454545 -10 14 C-8.2403147 7.69446099 -5.42141176 3.67881512 0 0 Z " fill="#EC7C6C" transform="translate(129,26)"/>
<path d="M0 0 C1.125 3.75 1.125 3.75 0 6 C0.99 6 1.98 6 3 6 C2.34 7.32 1.68 8.64 1 10 C-0.32 10 -1.64 10 -3 10 C-3 9.34 -3 8.68 -3 8 C-7.29 8 -11.58 8 -16 8 C-16 7.67 -16 7.34 -16 7 C-11.71 7 -7.42 7 -3 7 C-1 3.23570226 -1 3.23570226 0 0 Z " fill="#828589" transform="translate(733,211)"/>
<path d="M0 0 C0.33 0.66 0.66 1.32 1 2 C1.99 2 2.98 2 4 2 C4.99 4.97 5.98 7.94 7 11 C6.01 11.33 5.02 11.66 4 12 C0.81076967 7.81413519 -0.50423019 5.29441695 0 0 Z " fill="#54585E" transform="translate(460,203)"/>
<path d="M0 0 C1.875 0.1875 1.875 0.1875 4 1 C6.29099229 4.89468689 6.3350323 8.56082197 6 13 C5.34 13.66 4.68 14.32 4 15 C3.79503906 14.16855469 3.59007812 13.33710938 3.37890625 12.48046875 C3.10949219 11.39378906 2.84007812 10.30710938 2.5625 9.1875 C2.29566406 8.10855469 2.02882813 7.02960938 1.75390625 5.91796875 C1.23922588 3.9259157 0.65062825 1.95188476 0 0 Z " fill="#353A41" transform="translate(463,178)"/>
<path d="M0 0 C0.84304688 0.23009766 0.84304688 0.23009766 1.703125 0.46484375 C4.05838878 1.01360419 6.34548104 1.31497599 8.75 1.5625 C9.54921875 1.64628906 10.3484375 1.73007813 11.171875 1.81640625 C12.07679688 1.90728516 12.07679688 1.90728516 13 2 C13 2.99 13 3.98 13 5 C8.07872966 5.16682272 4.49656104 5.24828052 0 3 C0 2.01 0 1.02 0 0 Z " fill="#3B3F46" transform="translate(416,217)"/>
<path d="M0 0 C0.66 0 1.32 0 2 0 C2 1.32 2 2.64 2 4 C1.01 4.495 1.01 4.495 0 5 C-0.40729228 7.32156597 -0.74438677 9.6568787 -1 12 C-1.99 12.33 -2.98 12.66 -4 13 C-4.29543354 7.97762985 -4.00679573 5.0892422 -1 1 C-0.67 0.67 -0.34 0.34 0 0 Z " fill="#3C4046" transform="translate(749,175)"/>
<path d="M0 0 C2.62187494 1.04874998 3.79371361 1.64931313 5.25 4.125 C5.4975 4.74375 5.745 5.3625 6 6 C4.68 5.67 3.36 5.34 2 5 C2.495 5.7425 2.495 5.7425 3 6.5 C4.43636358 10.09090894 4.12851462 13.14456127 4 17 C3.67 17 3.34 17 3 17 C2.89042969 16.38511719 2.78085937 15.77023438 2.66796875 15.13671875 C2.43013672 13.92435547 2.43013672 13.92435547 2.1875 12.6875 C1.96126953 11.48673828 1.96126953 11.48673828 1.73046875 10.26171875 C0.91025725 7.7221334 0.00057189 6.71837535 -2 5 C-2.66 4.34 -3.32 3.68 -4 3 C-2.68 3 -1.36 3 0 3 C0 2.01 0 1.02 0 0 Z " fill="#9B9CA1" transform="translate(462,174)"/>
<path d="M0 0 C2.64 1.65 5.28 3.3 8 5 C6.68 5.33 5.36 5.66 4 6 C4 6.66 4 7.32 4 8 C6.475 8.99 6.475 8.99 9 10 C8.01 10.495 8.01 10.495 7 11 C5.08984375 10.29296875 5.08984375 10.29296875 2.9375 9.1875 C2.22464844 8.83042969 1.51179688 8.47335938 0.77734375 8.10546875 C-1 7 -1 7 -2 5 C-0.68 5.33 0.64 5.66 2 6 C1.34 4.02 0.68 2.04 0 0 Z " fill="#A0A1A4" transform="translate(490,189)"/>
<path d="M0 0 C2.375 0.6875 2.375 0.6875 5 2 C5.72159424 3.64363134 6.39351421 5.31050386 7 7 C7.99 7.33 8.98 7.66 10 8 C10 8.66 10 9.32 10 10 C10.66 10 11.32 10 12 10 C12 10.66 12 11.32 12 12 C10.68 11.67 9.36 11.34 8 11 C8 10.34 8 9.68 8 9 C7.4225 8.7525 6.845 8.505 6.25 8.25 C3.65091342 6.80606301 1.92163162 5.26478013 0 3 C0 2.01 0 1.02 0 0 Z " fill="#EE8070" transform="translate(116,241)"/>
<path d="M0 0 C3.68754757 0.49831724 5.60490662 1.10067643 8 4 C7.01 4 6.02 4 5 4 C5 4.99 5 5.98 5 7 C-0.75 5.25 -0.75 5.25 -3 3 C-1.68 2.67 -0.36 2.34 1 2 C0.67 1.34 0.34 0.68 0 0 Z " fill="#939498" transform="translate(757,195)"/>
<path d="M0 0 C2.46800047 1.15173355 4.04783565 2.04783565 6 4 C6.125 7.125 6.125 7.125 6 10 C5.67 8.68 5.34 7.36 5 6 C3.68 6.33 2.36 6.66 1 7 C1 6.34 1 5.68 1 5 C-0.65 4.67 -2.3 4.34 -4 4 C-3.34 3.525625 -2.68 3.05125 -2 2.5625 C-1.34 2.046875 -0.68 1.53125 0 1 C0 0.67 0 0.34 0 0 Z " fill="#797B80" transform="translate(732,174)"/>
<path d="M0 0 C2.64 0 5.28 0 8 0 C4.80427781 2.78955127 2.22847344 3.59857414 -1.9375 4.25 C-2.95714844 4.42015625 -3.97679688 4.5903125 -5.02734375 4.765625 C-7.94543527 4.99569792 -10.18021598 4.72701614 -13 4 C-13 3.67 -13 3.34 -13 3 C-6.565 2.505 -6.565 2.505 0 2 C0 1.34 0 0.68 0 0 Z " fill="#EF998D" transform="translate(83,221)"/>
<path d="M0 0 C2.0625 0.4375 2.0625 0.4375 4 1 C4.33 2.98 4.66 4.96 5 7 C3.33388095 7.042721 1.66617115 7.04063832 0 7 C-1 6 -1 6 -1.125 3.5 C-1 1 -1 1 0 0 Z " fill="#4A4F55" transform="translate(703,214)"/>
<path d="M0 0 C6.93 0.495 6.93 0.495 14 1 C13.67 1.66 13.34 2.32 13 3 C10.8203125 3.4140625 10.8203125 3.4140625 8.125 3.625 C6.79855469 3.73714844 6.79855469 3.73714844 5.4453125 3.8515625 C3.63287027 3.96158295 1.81577843 4 0 4 C0 2.68 0 1.36 0 0 Z " fill="#30343B" transform="translate(444,198)"/>
<path d="M0 0 C2.15377564 2.62198774 3.40072174 4.64404172 4 8 C3.01 7.67 2.02 7.34 1 7 C1.33 9.31 1.66 11.62 2 14 C-1.31038651 12.34480674 -1.78867011 9.34557779 -3 6 C-2.67 5.01 -2.34 4.02 -2 3 C-1.67 3.66 -1.34 4.32 -1 5 C-0.67 3.35 -0.34 1.7 0 0 Z " fill="#AEAEB1" transform="translate(691,183)"/>
<path d="M0 0 C0.99 0.33 1.98 0.66 3 1 C3 1.66 3 2.32 3 3 C6.63 3.33 10.26 3.66 14 4 C14 4.66 14 5.32 14 6 C4.87743733 6.62674095 4.87743733 6.62674095 1.375 4.125 C0 2 0 2 0 0 Z " fill="#383C43" transform="translate(747,216)"/>
<path d="M0 0 C2.375 0.625 2.375 0.625 5 2 C6.3125 5.125 6.3125 5.125 7 8 C5.68 8.33 4.36 8.66 3 9 C2.01 6.03 1.02 3.06 0 0 Z " fill="#565A60" transform="translate(565,187)"/>
<path d="M0 0 C2.50298434 2.93828597 3.46930939 5.17902761 4 9 C3.01 8.67 2.02 8.34 1 8 C0.67 9.32 0.34 10.64 0 12 C0 11.34 0 10.68 0 10 C-0.66 9.67 -1.32 9.34 -2 9 C-2.625 5.9375 -2.625 5.9375 -3 3 C-1.68 3.99 -0.36 4.98 1 6 C0.67 4.02 0.34 2.04 0 0 Z " fill="#A1A1A5" transform="translate(357,182)"/>
<path d="M0 0 C0.66 0 1.32 0 2 0 C1.64416666 2.78032492 1.22884474 3.80179168 -0.92578125 5.66796875 C-2.10720703 6.42013672 -2.10720703 6.42013672 -3.3125 7.1875 C-4.48232422 7.95126953 -4.48232422 7.95126953 -5.67578125 8.73046875 C-7.82431271 9.90403635 -9.60894342 10.5458634 -12 11 C-11.67 10.01 -11.34 9.02 -11 8 C-9.67696283 7.6278958 -8.34262065 7.29369827 -7 7 C-6.67 6.34 -6.34 5.68 -6 5 C-5.360625 4.87625 -4.72125 4.7525 -4.0625 4.625 C-1.80148727 4.19060573 -1.80148727 4.19060573 -0.75 1.9375 C-0.37875 0.9784375 -0.37875 0.9784375 0 0 Z " fill="#ED8A7C" transform="translate(168,246)"/>
<path d="M0 0 C0.33 0.66 0.66 1.32 1 2 C5.29 2 9.58 2 14 2 C14 2.66 14 3.32 14 4 C9.05 4 4.1 4 -1 4 C-0.67 2.68 -0.34 1.36 0 0 Z " fill="#33383F" transform="translate(716,217)"/>
<path d="M0 0 C3.94727588 -0.17942163 6.5980513 -0.09350689 10 2 C9.67 2.99 9.34 3.98 9 5 C5.65626525 4.44271087 2.96687001 3.64826111 0 2 C0 1.34 0 0.68 0 0 Z " fill="#575B61" transform="translate(494,195)"/>
<path d="M0 0 C2.97 0 5.94 0 9 0 C9 1.32 9 2.64 9 4 C3.72 3.67 -1.56 3.34 -7 3 C-7 2.67 -7 2.34 -7 2 C-3.535 1.505 -3.535 1.505 0 1 C0 0.67 0 0.34 0 0 Z " fill="#5D6066" transform="translate(453,173)"/>
<path d="M0 0 C0 0.33 0 0.66 0 1 C-1.15757812 1.13277344 -2.31515625 1.26554687 -3.5078125 1.40234375 C-5.04688408 1.58065082 -6.58594607 1.75904062 -8.125 1.9375 C-9.26582031 2.06801758 -9.26582031 2.06801758 -10.4296875 2.20117188 C-14.64329577 2.6915487 -18.821195 3.25902978 -23 4 C-22.67 3.01 -22.34 2.02 -22 1 C-14.66236293 -0.17402193 -7.41834582 -0.09377123 0 0 Z " fill="#EB7B6B" transform="translate(189,112)"/>
<path d="M0 0 C0.99 0.33 1.98 0.66 3 1 C4.89470816 1.0685495 6.7916834 1.08480372 8.6875 1.0625 C9.68136719 1.05347656 10.67523438 1.04445312 11.69921875 1.03515625 C12.45847656 1.02355469 13.21773438 1.01195312 14 1 C14 1.66 14 2.32 14 3 C9.56151204 4.10962199 5.54854894 4.2982655 1 4 C0.34 3.01 -0.32 2.02 -1 1 C-0.67 0.67 -0.34 0.34 0 0 Z " fill="#383C43" transform="translate(491,218)"/>
<path d="M0 0 C0.33 0.66 0.66 1.32 1 2 C1.66 2 2.32 2 3 2 C3.33 3.98 3.66 5.96 4 8 C2.68 8.33 1.36 8.66 0 9 C-1.36623674 6.26752652 -1.128426 4.01801098 -1 1 C-0.67 0.67 -0.34 0.34 0 0 Z " fill="#575B61" transform="translate(364,201)"/>
<path d="M0 0 C0.66 0 1.32 0 2 0 C1.125 4.75 1.125 4.75 0 7 C-1.32 7 -2.64 7 -4 7 C-4.33 5.02 -4.66 3.04 -5 1 C-3.02 1.99 -3.02 1.99 -1 3 C-0.67 2.01 -0.34 1.02 0 0 Z " fill="#383D44" transform="translate(650,201)"/>
<path d="M0 0 C1.9375 0.375 1.9375 0.375 4 1 C5.35439668 3.70879335 5.06501451 6.00933268 5 9 C2 8 2 8 0.8125 6.1875 C0 4 0 4 0 0 Z " fill="#4D5157" transform="translate(358,190)"/>
<path d="M0 0 C0.66 0.33 1.32 0.66 2 1 C1.01 3.31 0.02 5.62 -1 8 C-5.29 7.67 -9.58 7.34 -14 7 C-14 6.67 -14 6.34 -14 6 C-10.7 5.67 -7.4 5.34 -4 5 C-4 4.34 -4 3.68 -4 3 C-2 1.375 -2 1.375 0 0 Z " fill="#60646A" transform="translate(461,195)"/>
<path d="M0 0 C1.4552777 2.9105554 0.63516661 4.95849052 0.0625 8.125 C-0.13214844 9.22070312 -0.32679688 10.31640625 -0.52734375 11.4453125 C-0.68332031 12.28835937 -0.83929687 13.13140625 -1 14 C-1.99 14 -2.98 14 -4 14 C-4 12.35 -4 10.7 -4 9 C-3.34 8.67 -2.68 8.34 -2 8 C-1.62599214 5.67284 -1.29235267 3.33882138 -1 1 C-0.67 0.67 -0.34 0.34 0 0 Z " fill="#85878B" transform="translate(749,179)"/>
<path d="M0 0 C3 3 3 3 3.29296875 5.04296875 C3.1953125 7.02864583 3.09765625 9.01432292 3 11 C2.01 11 1.02 11 0 11 C0 7.37 0 3.74 0 0 Z " fill="#43474D" transform="translate(611,178)"/>
<path d="M0 0 C1.93166016 0.01740234 1.93166016 0.01740234 3.90234375 0.03515625 C5.19269531 0.04417969 6.48304688 0.05320313 7.8125 0.0625 C8.81152344 0.07410156 9.81054688 0.08570313 10.83984375 0.09765625 C10.50984375 0.75765625 10.17984375 1.41765625 9.83984375 2.09765625 C7.1875 2.58203125 7.1875 2.58203125 3.90234375 2.84765625 C2.28005859 2.99460938 2.28005859 2.99460938 0.625 3.14453125 C-2.16015625 3.09765625 -2.16015625 3.09765625 -4.16015625 1.09765625 C-3.16015625 0.09765625 -3.16015625 0.09765625 0 0 Z " fill="#3C4046" transform="translate(389.16015625,173.90234375)"/>
<path d="M0 0 C0 1.98 0 3.96 0 6 C-1.65 6.66 -3.3 7.32 -5 8 C-5 4.87099787 -4.57548683 3.62581138 -3 1 C-1 0 -1 0 0 0 Z " fill="#53575D" transform="translate(738,210)"/>
<path d="M0 0 C0.33 0.66 0.66 1.32 1 2 C1.66 2 2.32 2 3 2 C3.433125 3.2065625 3.433125 3.2065625 3.875 4.4375 C4.73262568 7.1326468 4.73262568 7.1326468 7 8 C7.625 10.5625 7.625 10.5625 8 13 C4.72653393 9.90347804 2.02490044 7.04980088 0 3 C0 2.01 0 1.02 0 0 Z " fill="#EC9487" transform="translate(44,202)"/>
<path d="M0 0 C4.03854121 5.0920737 4.10306393 8.71310016 4 15 C2.5 13.9375 2.5 13.9375 1 12 C0.875 8.625 0.875 8.625 1 5 C0.71479595 3.32442621 0.40044304 1.65182755 0 0 Z " fill="#717378" transform="translate(687,174)"/>
<path d="M0 0 C0.33 1.32 0.66 2.64 1 4 C1.33 4.33 1.66 4.66 2 5 C1.71269945 7.33944736 1.38063221 9.6739143 1 12 C0.01 11.67 -0.98 11.34 -2 11 C-1.34 7.37 -0.68 3.74 0 0 Z " fill="#6E7176" transform="translate(658,178)"/>
<path d="M0 0 C2.18975773 3.28463659 2.99806563 6.20696275 4 10 C3.34 9.67 2.68 9.34 2 9 C2 8.34 2 7.68 2 7 C1.34 7 0.68 7 0 7 C-0.33 7.99 -0.66 8.98 -1 10 C-1 9.34 -1 8.68 -1 8 C-1.66 8 -2.32 8 -3 8 C-3 6.68 -3 5.36 -3 4 C-2.34 4 -1.68 4 -1 4 C-1 4.66 -1 5.32 -1 6 C-0.34 6 0.32 6 1 6 C0.67 4.02 0.34 2.04 0 0 Z " fill="#9E9EA2" transform="translate(637,177)"/>
<path d="M0 0 C2.0625 0.4375 2.0625 0.4375 4 1 C3 3 3 3 1 4 C0.67 4.66 0.34 5.32 0 6 C-0.66 5.34 -1.32 4.68 -2 4 C-4.43252661 3.53837573 -4.43252661 3.53837573 -7.125 3.375 C-8.03507812 3.30023438 -8.94515625 3.22546875 -9.8828125 3.1484375 C-10.58148438 3.09945312 -11.28015625 3.05046875 -12 3 C-12 2.67 -12 2.34 -12 2 C-11.21753906 1.93941406 -10.43507813 1.87882813 -9.62890625 1.81640625 C-8.61699219 1.73261719 -7.60507812 1.64882812 -6.5625 1.5625 C-5.55316406 1.48128906 -4.54382813 1.40007812 -3.50390625 1.31640625 C-1.06359221 1.26788532 -1.06359221 1.26788532 0 0 Z " fill="#A3A4A7" transform="translate(400,174)"/>
<path d="M0 0 C3.25733261 1.08577754 4.00019136 1.86957801 6.125 4.4375 C6.64320312 5.05496094 7.16140625 5.67242187 7.6953125 6.30859375 C9 8 9 8 10 10 C5.74415592 7.94545458 2.62935323 6.0066335 0 2 C0 1.34 0 0.68 0 0 Z " fill="#EE8475" transform="translate(84,141)"/>
<path d="M0 0 C0.33 0.66 0.66 1.32 1 2 C-0.1796875 4.3828125 -0.1796875 4.3828125 -1.875 7.125 C-2.42929688 8.03507813 -2.98359375 8.94515625 -3.5546875 9.8828125 C-4.03164062 10.58148438 -4.50859375 11.28015625 -5 12 C-5.33 12 -5.66 12 -6 12 C-6.375 9.9375 -6.375 9.9375 -6 7 C-4.20822891 4.46427718 -2.15761879 2.22825512 0 0 Z " fill="#EE8778" transform="translate(145,132)"/>
<path d="M0 0 C3.55780196 0.60990891 6.6828589 1.5783681 10 3 C6.94736336 3.98120464 5.05263664 3.98120464 2 3 C2.33 3.99 2.66 4.98 3 6 C1.68 5.34 0.36 4.68 -1 4 C-0.67 2.68 -0.34 1.36 0 0 Z " fill="#939599" transform="translate(414,215)"/>
<path d="M0 0 C0.66 0 1.32 0 2 0 C5.24599784 4.15487723 5.56826373 7.90551202 6 13 C4 12 4 12 3 9.125 C2.67 8.09375 2.34 7.0625 2 6 C1.34 5.01 0.68 4.02 0 3 C0 2.01 0 1.02 0 0 Z " fill="#383C43" transform="translate(639,189)"/>
<path d="M0 0 C5.28 0 10.56 0 16 0 C15.34 0.66 14.68 1.32 14 2 C11.8359375 1.9765625 11.8359375 1.9765625 9.375 1.625 C8.55773437 1.51414063 7.74046875 1.40328125 6.8984375 1.2890625 C6.27195312 1.19367188 5.64546875 1.09828125 5 1 C5 1.99 5 2.98 5 4 C2.525 3.01 2.525 3.01 0 2 C0 1.34 0 0.68 0 0 Z " fill="#919296" transform="translate(382,218)"/>
<path d="M0 0 C2 2 2 2 2.125 4.625 C2.08375 5.40875 2.0425 6.1925 2 7 C2.66 7.33 3.32 7.66 4 8 C3.34 8 2.68 8 2 8 C1.67 9.65 1.34 11.3 1 13 C-0.5625 11.75 -0.5625 11.75 -2 10 C-1.6875 7.8125 -1.6875 7.8125 -1 6 C-0.67 6.66 -0.34 7.32 0 8 C0 5.36 0 2.72 0 0 Z " fill="#8D8F93" transform="translate(577,206)"/>
<path d="M0 0 C0.99 0 1.98 0 3 0 C3.33 2.64 3.66 5.28 4 8 C3.01 8.495 3.01 8.495 2 9 C2 8.01 2 7.02 2 6 C1.34 6 0.68 6 0 6 C0 4.02 0 2.04 0 0 Z " fill="#474B51" transform="translate(574,206)"/>
<path d="M0 0 C0.99 0.33 1.98 0.66 3 1 C3 4.3 3 7.6 3 11 C2.34 11 1.68 11 1 11 C0.67 7.37 0.34 3.74 0 0 Z " fill="#31353C" transform="translate(766,203)"/>
<path d="M0 0 C3.3 0 6.6 0 10 0 C10.33 0.99 10.66 1.98 11 3 C7.37 3 3.74 3 0 3 C0 2.01 0 1.02 0 0 Z " fill="#3D4047" transform="translate(492,173)"/>
<path d="M0 0 C4.77576339 0.4682121 8.04476345 1.24331998 12 4 C8.97878489 4.97110486 6.99536737 5.13617383 4 4 C3.67 3.34 3.34 2.68 3 2 C2.01 1.34 1.02 0.68 0 0 Z " fill="#EE8D7F" transform="translate(152,191)"/>
<path d="M0 0 C1.41377341 2.63904371 2.37240135 5.07120629 3 8 C1.35 7.67 -0.3 7.34 -2 7 C-2 5.02 -2 3.04 -2 1 C-1.34 0.67 -0.68 0.34 0 0 Z " fill="#393E45" transform="translate(686,174)"/>
<path d="M0 0 C-1.57533086 0.86883706 -3.16064509 1.71959068 -4.75 2.5625 C-5.63171875 3.03816406 -6.5134375 3.51382813 -7.421875 4.00390625 C-10.20701188 5.07998186 -11.26980214 5.06528748 -14 4 C-12.42466914 3.13116294 -10.83935491 2.28040932 -9.25 1.4375 C-8.36828125 0.96183594 -7.4865625 0.48617187 -6.578125 -0.00390625 C-3.79298812 -1.07998186 -2.73019786 -1.06528748 0 0 Z " fill="#ED9487" transform="translate(108,90)"/>
<path d="M0 0 C0.33 0 0.66 0 1 0 C1 2.64 1 5.28 1 8 C-0.32 8 -1.64 8 -3 8 C-1.125 1.125 -1.125 1.125 0 0 Z " fill="#3A3E45" transform="translate(404,209)"/>
<path d="M0 0 C5.71241466 0.38728235 8.73688282 0.87010523 13 5 C12.01 5.495 12.01 5.495 11 6 C8.3984375 5.00390625 8.3984375 5.00390625 5.375 3.5625 C3.87066406 2.85287109 3.87066406 2.85287109 2.3359375 2.12890625 C1.56507813 1.75636719 0.79421875 1.38382813 0 1 C0 0.67 0 0.34 0 0 Z " fill="#ED9386" transform="translate(163,184)"/>
<path d="M0 0 C0.66 0 1.32 0 2 0 C2 0.99 2 1.98 2 3 C2.66 3 3.32 3 4 3 C4.33 4.98 4.66 6.96 5 9 C2 8 2 8 0.8125 6.1875 C0 4 0 4 0 0 Z " fill="#3C4148" transform="translate(353,179)"/>
<path d="M0 0 C0.66 0 1.32 0 2 0 C1.88590407 1.45922693 1.75834456 2.91740598 1.625 4.375 C1.55539062 5.18710938 1.48578125 5.99921875 1.4140625 6.8359375 C1 9 1 9 -1 11 C-1.02688151 9.35425434 -1.04634123 7.70838587 -1.0625 6.0625 C-1.07410156 5.14597656 -1.08570313 4.22945312 -1.09765625 3.28515625 C-1 1 -1 1 0 0 Z " fill="#353941" transform="translate(487,178)"/>
<path d="M0 0 C0 3 0 3 -1.3125 4.60546875 C-1.869375 5.12753906 -2.42625 5.64960937 -3 6.1875 C-3.556875 6.71730469 -4.11375 7.24710937 -4.6875 7.79296875 C-5.120625 8.19128906 -5.55375 8.58960937 -6 9 C-6.66 8.67 -7.32 8.34 -8 8 C-7.34 6.68 -6.68 5.36 -6 4 C-5.34 4 -4.68 4 -4 4 C-4 3.34 -4 2.68 -4 2 C-2.68 1.34 -1.36 0.68 0 0 Z " fill="#EA8B7E" transform="translate(177,73)"/>
<path d="M0 0 C2.72647685 2.35468455 3.98756342 4.5408417 5 8 C4.625 10.3125 4.625 10.3125 4 12 C4 11.01 4 10.02 4 9 C3.01 8.67 2.02 8.34 1 8 C0.67 5.36 0.34 2.72 0 0 Z " fill="#EF9183" transform="translate(248,69)"/>
<path d="M0 0 C3.91402949 1.26941497 5.79072873 2.51167694 8 6 C3.545 5.01 3.545 5.01 -1 4 C-0.67 2.68 -0.34 1.36 0 0 Z " fill="#77797E" transform="translate(347,63)"/>
<path d="M0 0 C4.77576339 0.4682121 8.04476345 1.24331998 12 4 C9.18185434 5.40907283 7.82722796 4.50872691 4.875 3.5625 C3.96492187 3.27503906 3.05484375 2.98757812 2.1171875 2.69140625 C1.41851562 2.46324219 0.71984375 2.23507813 0 2 C0 1.34 0 0.68 0 0 Z " fill="#F08B7C" transform="translate(227,55)"/>
<path d="M0 0 C3.3 0.33 6.6 0.66 10 1 C9.67 1.66 9.34 2.32 9 3 C6.03 3 3.06 3 0 3 C0 2.01 0 1.02 0 0 Z " fill="#383D44" transform="translate(387,219)"/>
<path d="M0 0 C0.66 0 1.32 0 2 0 C2 0.66 2 1.32 2 2 C2.66 2 3.32 2 4 2 C4.33 3.98 4.66 5.96 5 8 C3.0625 7.375 3.0625 7.375 1 6 C0.25 2.875 0.25 2.875 0 0 Z " fill="#3C4047" transform="translate(570,197)"/>
<path d="M0 0 C3 3 3 3 3.1875 6.1875 C3.0946875 7.5796875 3.0946875 7.5796875 3 9 C2.01 9 1.02 9 0 9 C0 6.03 0 3.06 0 0 Z " fill="#3C4047" transform="translate(507,180)"/>
<path d="M0 0 C0.99 0.33 1.98 0.66 3 1 C3.33 2.98 3.66 4.96 4 7 C3.01 7 2.02 7 1 7 C0.34 5.02 -0.32 3.04 -1 1 C-0.67 0.67 -0.34 0.34 0 0 Z " fill="#3A3F46" transform="translate(401,176)"/>
<path d="M0 0 C0.33 0 0.66 0 1 0 C1 1.98 1 3.96 1 6 C1.66 6 2.32 6 3 6 C2.67 6.99 2.34 7.98 2 9 C0.68 9 -0.64 9 -2 9 C-1.34 6.03 -0.68 3.06 0 0 Z " fill="#87898E" transform="translate(610,212)"/>
<path d="M0 0 C0.99 0.33 1.98 0.66 3 1 C3 3.97 3 6.94 3 10 C2.34 10 1.68 10 1 10 C0.67 6.7 0.34 3.4 0 0 Z " fill="#30343B" transform="translate(507,205)"/>
<path d="M0 0 C0.66 0 1.32 0 2 0 C2 2.31 2 4.62 2 7 C1.01 7.33 0.02 7.66 -1 8 C-1.04241723 5.66705225 -1.04092937 3.33297433 -1 1 C-0.67 0.67 -0.34 0.34 0 0 Z " fill="#4F5359" transform="translate(382,176)"/>
<path d="M0 0 C0.66 0 1.32 0 2 0 C2 0.66 2 1.32 2 2 C3.65 2 5.3 2 7 2 C5.35 3.32 3.7 4.64 2 6 C2 5.34 2 4.68 2 4 C0.68 4.33 -0.64 4.66 -2 5 C-1.34 3.35 -0.68 1.7 0 0 Z " fill="#8F9095" transform="translate(592,174)"/>
<path d="M0 0 C2.01822917 0.06510417 4.03645833 0.13020833 6.0546875 0.1953125 C6.3846875 1.1853125 6.7146875 2.1753125 7.0546875 3.1953125 C3.4246875 2.8653125 -0.2053125 2.5353125 -3.9453125 2.1953125 C-1.9453125 0.1953125 -1.9453125 0.1953125 0 0 Z " fill="#34383F" transform="translate(755.9453125,172.8046875)"/>
<path d="M0 0 C1.65 0 3.3 0 5 0 C5 0.66 5 1.32 5 2 C7.31 2.66 9.62 3.32 12 4 C9.5332355 4.88336837 8.36140628 5.1312406 5.859375 4.22265625 C5.16328125 3.83980469 4.4671875 3.45695313 3.75 3.0625 C3.04359375 2.68222656 2.3371875 2.30195313 1.609375 1.91015625 C1.07828125 1.60980469 0.5471875 1.30945313 0 1 C0 0.67 0 0.34 0 0 Z " fill="#F09082" transform="translate(94,151)"/>
<path d="M0 0 C0.33 0.66 0.66 1.32 1 2 C1.66 2 2.32 2 3 2 C3 3.98 3 5.96 3 8 C2.34 8 1.68 8 1 8 C0.34 5.69 -0.32 3.38 -1 1 C-0.67 0.67 -0.34 0.34 0 0 Z " fill="#3D4249" transform="translate(692,189)"/>
<path d="M0 0 C-3.28463659 2.18975773 -6.20696275 2.99806563 -10 4 C-10 3.01 -10 2.02 -10 1 C-6.52674819 -0.1577506 -3.63932552 -0.06866652 0 0 Z " fill="#EC887A" transform="translate(135,182)"/>
<path d="M0 0 C0.99 0.33 1.98 0.66 3 1 C3.33 3.31 3.66 5.62 4 8 C3.34 8 2.68 8 2 8 C0.23537317 4.91190305 0 3.76687864 0 0 Z " fill="#383D44" transform="translate(764,175)"/>
<path d="M0 0 C0.99 0 1.98 0 3 0 C3.66 1.98 4.32 3.96 5 6 C3.35 6 1.7 6 0 6 C0 4.02 0 2.04 0 0 Z " fill="#3C4147" transform="translate(632,173)"/>
<path d="M0 0 C0.66 0.33 1.32 0.66 2 1 C2 6 2 6 1 8 C0.34 8 -0.32 8 -1 8 C-1.625 5.125 -1.625 5.125 -2 2 C-1.34 1.34 -0.68 0.68 0 0 Z " fill="#86878C" transform="translate(385,173)"/>
<path d="M0 0 C1.31722179 0.42307123 2.62872664 0.86397486 3.9375 1.3125 C4.66839844 1.55613281 5.39929688 1.79976563 6.15234375 2.05078125 C8 3 8 3 9 6 C5.51669784 5.35494404 2.90567134 4.01782732 0 2 C0 1.34 0 0.68 0 0 Z " fill="#E8614E" transform="translate(197,126)"/>
<path d="M0 0 C-1.98 0.66 -3.96 1.32 -6 2 C-6 2.66 -6 3.32 -6 4 C-7.65 4 -9.3 4 -11 4 C-7.84441727 0.34616736 -4.73375145 -1.57791715 0 0 Z " fill="#EF9F94" transform="translate(213,55)"/>
<path d="M0 0 C-1.24176695 0.70226141 -2.49385599 1.38629109 -3.75 2.0625 C-4.79414063 2.63677734 -4.79414063 2.63677734 -5.859375 3.22265625 C-8.36140628 4.1312406 -9.5332355 3.88336837 -12 3 C-10.75823305 2.29773859 -9.50614401 1.61370891 -8.25 0.9375 C-7.20585937 0.36322266 -7.20585937 0.36322266 -6.140625 -0.22265625 C-3.63859372 -1.1312406 -2.4667645 -0.88336837 0 0 Z " fill="#EEA99F" transform="translate(143,22)"/>
<path d="M0 0 C0.8353125 0.556875 0.8353125 0.556875 1.6875 1.125 C0.6975 1.62 0.6975 1.62 -0.3125 2.125 C-0.9725 1.795 -1.6325 1.465 -2.3125 1.125 C-2.3125 2.115 -2.3125 3.105 -2.3125 4.125 C-3.9625 3.795 -5.6125 3.465 -7.3125 3.125 C-7.3125 2.465 -7.3125 1.805 -7.3125 1.125 C-2.88173077 -1.09038462 -2.88173077 -1.09038462 0 0 Z " fill="#A0A0A4" transform="translate(506.3125,198.875)"/>
<path d="M0 0 C0.66 0.33 1.32 0.66 2 1 C3.87056791 1.2275015 5.74685958 1.40962811 7.625 1.5625 C8.62789062 1.64628906 9.63078125 1.73007813 10.6640625 1.81640625 C11.43492187 1.87699219 12.20578125 1.93757812 13 2 C13 2.33 13 2.66 13 3 C6.565 3.495 6.565 3.495 0 4 C-0.33 3.34 -0.66 2.68 -1 2 C-0.67 1.34 -0.34 0.68 0 0 Z " fill="#30353C" transform="translate(517,195)"/>
<path d="M0 0 C0.33 0.66 0.66 1.32 1 2 C1.66 2 2.32 2 3 2 C3.33 3.98 3.66 5.96 4 8 C3.01 7.67 2.02 7.34 1 7 C-0.1875 3.9375 -0.1875 3.9375 -1 1 C-0.67 0.67 -0.34 0.34 0 0 Z " fill="#393D44" transform="translate(562,178)"/>
<path d="M0 0 C0 3.90838866 -1.50567876 5.11594107 -4 8 C-5.32 7.67 -6.64 7.34 -8 7 C-5.36 4.69 -2.72 2.38 0 0 Z " fill="#EC978B" transform="translate(181,83)"/>
<path d="M0 0 C1.98 0 3.96 0 6 0 C5.01 0.495 5.01 0.495 4 1 C4 1.66 4 2.32 4 3 C-0.455 3.495 -0.455 3.495 -5 4 C-4.34 3.34 -3.68 2.68 -3 2 C-2.01 2 -1.02 2 0 2 C0 1.34 0 0.68 0 0 Z " fill="#F0AAA0" transform="translate(160,84)"/>
<path d="M0 0 C0.66 0.33 1.32 0.66 2 1 C-0.44580676 4.66871014 -3.12424268 6.06212134 -7 8 C-5.50902342 4.2047869 -3.24299151 2.38957269 0 0 Z " fill="#F2A297" transform="translate(200,59)"/>
<path d="M0 0 C4.83256305 0.41421969 6.82679218 2.46413986 10 6 C3.47692308 4.52307692 3.47692308 4.52307692 1.0625 1.875 C0.711875 1.25625 0.36125 0.6375 0 0 Z " fill="#ED9285" transform="translate(162,23)"/>
<path d="M0 0 C3.93846154 4.30769231 3.93846154 4.30769231 4.25 7.8125 C4.1675 8.534375 4.085 9.25625 4 10 C1.16625119 6.79663178 0.4794463 4.21912747 0 0 Z " fill="#EF978A" transform="translate(112,231)"/>
<path d="M0 0 C0.33 0 0.66 0 1 0 C1.36923077 5.53846154 1.36923077 5.53846154 -0.5 7.875 C-1.2425 8.431875 -1.2425 8.431875 -2 9 C-2.33 7.35 -2.66 5.7 -3 4 C-2.01 4 -1.02 4 0 4 C0 2.68 0 1.36 0 0 Z " fill="#6A6D72" transform="translate(436,211)"/>
<path d="M0 0 C0.66 0 1.32 0 2 0 C1.67 2.97 1.34 5.94 1 9 C0.67 9 0.34 9 0 9 C-0.87890625 2.84765625 -0.87890625 2.84765625 -1 1 C-0.67 0.67 -0.34 0.34 0 0 Z " fill="#4E5258" transform="translate(700,206)"/>
<path d="M0 0 C2.64 0.33 5.28 0.66 8 1 C8.33 1.99 8.66 2.98 9 4 C5.17902761 3.46930939 2.93828597 2.50298434 0 0 Z " fill="#E97767" transform="translate(130,82)"/>
<path d="M0 0 C1.98 0.495 1.98 0.495 4 1 C3.67 2.32 3.34 3.64 3 5 C1.68 4.67 0.36 4.34 -1 4 C-0.67 2.68 -0.34 1.36 0 0 Z " fill="#8C8D92" transform="translate(468,219)"/>
<path d="M0 0 C0.33 0 0.66 0 1 0 C0.67 2.31 0.34 4.62 0 7 C-0.99 7.33 -1.98 7.66 -3 8 C-1.125 1.125 -1.125 1.125 0 0 Z " fill="#EA7F70" transform="translate(116,206)"/>
<path d="M0 0 C0.99 0 1.98 0 3 0 C3 2.31 3 4.62 3 7 C2.01 7.495 2.01 7.495 1 8 C0.67 5.36 0.34 2.72 0 0 Z " fill="#353A41" transform="translate(745,207)"/>
<path d="M0 0 C0.66 0.33 1.32 0.66 2 1 C2 1.66 2 2.32 2 3 C2.66 3.33 3.32 3.66 4 4 C3.01 4 2.02 4 1 4 C1 5.65 1 7.3 1 9 C0.67 9 0.34 9 0 9 C-0.87890625 2.84765625 -0.87890625 2.84765625 -1 1 C-0.67 0.67 -0.34 0.34 0 0 Z " fill="#53575D" transform="translate(368,210)"/>
<path d="M0 0 C-4.625 3 -4.625 3 -8 3 C-8 2.01 -8 1.02 -8 0 C-2.25 -1.125 -2.25 -1.125 0 0 Z " fill="#EA9387" transform="translate(201,185)"/>
<path d="M0 0 C0.99 0 1.98 0 3 0 C2.34 3.3 1.68 6.6 1 10 C0.67 10 0.34 10 0 10 C-0.19412181 8.52168779 -0.38012131 7.04230684 -0.5625 5.5625 C-0.66691406 4.73878906 -0.77132812 3.91507813 -0.87890625 3.06640625 C-0.91886719 2.38449219 -0.95882812 1.70257813 -1 1 C-0.67 0.67 -0.34 0.34 0 0 Z " fill="#393E44" transform="translate(591,178)"/>
<path d="M0 0 C1 3 1 3 0.22265625 4.82421875 C-0.8515625 6.54947917 -1.92578125 8.27473958 -3 10 C-3.33 9.34 -3.66 8.68 -4 8 C-1.48571429 1.48571429 -1.48571429 1.48571429 0 0 Z " fill="#F2B0A6" transform="translate(214,166)"/>
<path d="M0 0 C-1.32 0.33 -2.64 0.66 -4 1 C-4 1.66 -4 2.32 -4 3 C-5.65 3 -7.3 3 -9 3 C-5.83583464 -0.30799106 -4.50236011 -1.35070803 0 0 Z " fill="#EA8173" transform="translate(66,160)"/>
<path d="M0 0 C1 2 1 2 0.3125 4.5625 C-0.120625 5.366875 -0.55375 6.17125 -1 7 C-2.32 7.33 -3.64 7.66 -5 8 C-3.35 5.36 -1.7 2.72 0 0 Z " fill="#ED9184" transform="translate(187,75)"/>
</svg>
